<svg width="41" height="22" viewBox="0 0 41 22" fill="none" xmlns="http://www.w3.org/2000/svg">
<path d="M32.4737 20.9294C36.1424 20.9294 39.1166 17.9553 39.1166 14.2866C39.1166 10.6178 36.1424 7.64368 32.4737 7.64368C28.8049 7.64368 25.8308 10.6178 25.8308 14.2866C25.8308 17.9553 28.8049 20.9294 32.4737 20.9294Z" stroke="#404455" stroke-width="1.99404"/>
<path d="M20.4321 15.1162L14.2043 1.83044" stroke="#404455" stroke-width="1.99404"/>
<path d="M32.4737 14.2858L25.8308 1.83044H30.1902C30.9927 1.83044 31.6434 2.48103 31.6434 3.28357C31.6434 4.08611 30.9927 4.7367 30.1902 4.7367H29.9826" stroke="#404455" stroke-width="1.99404" stroke-linecap="round"/>
<path d="M8.39288 20.9294C12.0616 20.9294 15.0358 17.9553 15.0358 14.2866C15.0358 10.6178 12.0616 7.64368 8.39288 7.64368C4.72412 7.64368 1.75 10.6178 1.75 14.2866C1.75 17.9553 4.72412 20.9294 8.39288 20.9294Z" stroke="#404455" stroke-width="1.99404"/>
<path d="M15.8318 5.15222H26.569C27.2616 5.15222 27.6498 5.95025 27.2223 6.49516L20.707 14.7988C20.5496 14.9993 20.3087 15.1166 20.0538 15.1166H9.31652C8.6239 15.1166 8.2357 14.3185 8.66325 13.7736L15.1785 5.47C15.3359 5.26939 15.5768 5.15222 15.8318 5.15222Z" stroke="#404455" stroke-width="1.99404" stroke-linecap="round"/>
<path d="M16.698 1H11.7159C11.2573 1 10.8855 1.37176 10.8855 1.83036C10.8855 2.28895 11.2573 2.66072 11.7159 2.66072H16.698C17.1566 2.66072 17.5284 2.28895 17.5284 1.83036C17.5284 1.37176 17.1566 1 16.698 1Z" fill="#404455"/>
</svg>
