<svg width="31" height="17" viewBox="0 0 31 17" fill="none" xmlns="http://www.w3.org/2000/svg">
<path d="M24.5856 15.6715C27.402 15.6715 29.6852 13.3884 29.6852 10.572C29.6852 7.75556 27.402 5.47241 24.5856 5.47241C21.7692 5.47241 19.4861 7.75556 19.4861 10.572C19.4861 13.3884 21.7692 15.6715 24.5856 15.6715Z" stroke="#404455" stroke-width="1.53077"/>
<path d="M15.3417 11.2088L10.5608 1.00977" stroke="#404455" stroke-width="1.53077"/>
<path d="M24.5856 10.5714L19.4861 1.00977H22.8327C23.4487 1.00977 23.9482 1.5092 23.9482 2.12529C23.9482 2.74138 23.4487 3.24082 22.8327 3.24082H22.6733" stroke="#404455" stroke-width="1.53077" stroke-linecap="round"/>
<path d="M6.09955 15.6715C8.91595 15.6715 11.1991 13.3884 11.1991 10.572C11.1991 7.75556 8.91595 5.47241 6.09955 5.47241C3.28315 5.47241 1 7.75556 1 10.572C1 13.3884 3.28315 15.6715 6.09955 15.6715Z" stroke="#404455" stroke-width="1.53077"/>
<path d="M11.8102 3.55969H20.0528C20.5845 3.55969 20.8825 4.17232 20.5543 4.59063L15.5527 10.9651C15.4318 11.119 15.247 11.2091 15.0513 11.2091H6.80855C6.27685 11.2091 5.97883 10.5964 6.30705 10.1781L11.3086 3.80364C11.4295 3.64964 11.6143 3.55969 11.8102 3.55969Z" stroke="#404455" stroke-width="1.53077" stroke-linecap="round"/>
<path d="M12.4753 0.372192H8.65063C8.29858 0.372192 8.01318 0.657586 8.01318 1.00964C8.01318 1.36169 8.29858 1.64708 8.65063 1.64708H12.4753C12.8273 1.64708 13.1127 1.36169 13.1127 1.00964C13.1127 0.657586 12.8273 0.372192 12.4753 0.372192Z" fill="#404455"/>
</svg>
