<svg width="32" height="18" viewBox="0 0 32 18" fill="none" xmlns="http://www.w3.org/2000/svg">
<circle cx="25.5112" cy="11.1401" r="5.27388" stroke="#404455" stroke-width="1.31847"/>
<path d="M15.9511 11.7987L11.0068 1.25098" stroke="#404455" stroke-width="1.31847"/>
<path d="M25.5112 11.1395L20.2373 1.25098H23.6983C24.3354 1.25098 24.852 1.76749 24.852 2.40464V2.40464C24.852 3.04179 24.3354 3.5583 23.6983 3.5583H23.5335" stroke="#404455" stroke-width="1.31847" stroke-linecap="round"/>
<circle cx="6.39308" cy="11.1401" r="5.27388" stroke="#404455" stroke-width="1.31847"/>
<path d="M12.299 3.88824H20.8234C21.3733 3.88824 21.6815 4.52181 21.3421 4.95442L16.1695 11.5468C16.0445 11.706 15.8533 11.7991 15.6509 11.7991H7.12641C6.57653 11.7991 6.26833 11.1655 6.60777 10.7329L11.7803 4.14053C11.9053 3.98126 12.0965 3.88824 12.299 3.88824Z" stroke="#404455" stroke-width="1.31847" stroke-linecap="round"/>
<rect x="8.37207" y="0.591797" width="5.27388" height="1.31847" rx="0.659235" fill="#404455"/>
</svg>
