<svg width="35" height="19" viewBox="0 0 35 19" fill="none" xmlns="http://www.w3.org/2000/svg">
<path d="M27.9883 17.8411C31.211 17.8411 33.8235 15.2286 33.8235 12.0059C33.8235 8.78317 31.211 6.17065 27.9883 6.17065C24.7656 6.17065 22.1531 8.78317 22.1531 12.0059C22.1531 15.2286 24.7656 17.8411 27.9883 17.8411Z" stroke="#404455" stroke-width="1.7516"/>
<path d="M17.4107 12.7346L11.9402 1.06421" stroke="#404455" stroke-width="1.7516"/>
<path d="M27.9883 12.0052L22.1531 1.06421H25.9825C26.6874 1.06421 27.259 1.6357 27.259 2.34066C27.259 3.04563 26.6874 3.61712 25.9825 3.61712H25.8001" stroke="#404455" stroke-width="1.7516" stroke-linecap="round"/>
<path d="M6.83522 17.8411C10.0579 17.8411 12.6704 15.2286 12.6704 12.0059C12.6704 8.78317 10.0579 6.17065 6.83522 6.17065C3.61252 6.17065 1 8.78317 1 12.0059C1 15.2286 3.61252 17.8411 6.83522 17.8411Z" stroke="#404455" stroke-width="1.7516"/>
<path d="M13.3697 3.98206H22.8014C23.4098 3.98206 23.7508 4.68306 23.3753 5.16172L17.6522 12.4558C17.5138 12.6319 17.3023 12.7349 17.0784 12.7349H7.64653C7.03812 12.7349 6.69712 12.0339 7.07269 11.5553L12.7958 4.2612C12.9341 4.08498 13.1456 3.98206 13.3697 3.98206Z" stroke="#404455" stroke-width="1.7516" stroke-linecap="round"/>
<path d="M14.1307 0.334717H9.75431C9.35147 0.334717 9.0249 0.661282 9.0249 1.06412C9.0249 1.46696 9.35147 1.79352 9.75431 1.79352H14.1307C14.5336 1.79352 14.8601 1.46696 14.8601 1.06412C14.8601 0.661282 14.5336 0.334717 14.1307 0.334717Z" fill="#404455"/>
</svg>
