<svg width="31" height="17" viewBox="0 0 31 17" fill="none" xmlns="http://www.w3.org/2000/svg">
<path d="M24.5856 16.1376C27.402 16.1376 29.6852 13.8544 29.6852 11.038C29.6852 8.22162 27.402 5.93848 24.5856 5.93848C21.7692 5.93848 19.4861 8.22162 19.4861 11.038C19.4861 13.8544 21.7692 16.1376 24.5856 16.1376Z" stroke="#404455" stroke-width="1.53077"/>
<path d="M15.3417 11.6749L10.5608 1.47583" stroke="#404455" stroke-width="1.53077"/>
<path d="M24.5856 11.0375L19.4861 1.47583H22.8327C23.4487 1.47583 23.9482 1.97527 23.9482 2.59135C23.9482 3.20744 23.4487 3.70688 22.8327 3.70688H22.6733" stroke="#404455" stroke-width="1.53077" stroke-linecap="round"/>
<path d="M6.09955 16.1376C8.91595 16.1376 11.1991 13.8544 11.1991 11.038C11.1991 8.22162 8.91595 5.93848 6.09955 5.93848C3.28315 5.93848 1 8.22162 1 11.038C1 13.8544 3.28315 16.1376 6.09955 16.1376Z" stroke="#404455" stroke-width="1.53077"/>
<path d="M11.8102 4.02576H20.0528C20.5845 4.02576 20.8825 4.63838 20.5543 5.05669L15.5527 11.4312C15.4318 11.5851 15.247 11.6751 15.0513 11.6751H6.80855C6.27685 11.6751 5.97883 11.0625 6.30705 10.6442L11.3086 4.26971C11.4295 4.1157 11.6143 4.02576 11.8102 4.02576Z" stroke="#404455" stroke-width="1.53077" stroke-linecap="round"/>
<path d="M12.4753 0.838257H8.65063C8.29858 0.838257 8.01318 1.12365 8.01318 1.4757C8.01318 1.82775 8.29858 2.11314 8.65063 2.11314H12.4753C12.8273 2.11314 13.1127 1.82775 13.1127 1.4757C13.1127 1.12365 12.8273 0.838257 12.4753 0.838257Z" fill="#404455"/>
</svg>
