<svg width="26" height="21" viewBox="0 0 26 21" fill="none" xmlns="http://www.w3.org/2000/svg">
<path fill-rule="evenodd" clip-rule="evenodd" d="M18.7381 2.359H7.88672C7.73758 2.359 7.60396 2.45112 7.55094 2.59052L4.24868 11.2719C4.23316 11.3126 4.22521 11.3559 4.22521 11.3996V15.7326H22.3996V11.3996C22.3996 11.3559 22.3916 11.3126 22.3762 11.2719L19.0739 2.59052C19.0208 2.45112 18.8872 2.359 18.7381 2.359ZM7.88672 0.301514C6.88348 0.301514 5.98457 0.921331 5.62788 1.85902L2.32563 10.5404C2.22124 10.8148 2.16772 11.106 2.16772 11.3996V16.5817C2.16772 17.249 2.70874 17.7901 3.37609 17.7901H24.4571V11.3996C24.4571 11.106 24.4035 10.8148 24.2992 10.5404L20.9969 1.85902C20.6402 0.921331 19.7414 0.301514 18.7381 0.301514H7.88672Z" fill="#E79D67"/>
<path fill-rule="evenodd" clip-rule="evenodd" d="M0.624512 7.29906C0.624512 6.82559 1.00833 6.44177 1.4818 6.44177H25.1428C25.6162 6.44177 26.0001 6.82559 26.0001 7.29906C26.0001 7.77252 25.6162 8.15633 25.1428 8.15633H1.4818C1.00833 8.15633 0.624512 7.77252 0.624512 7.29906Z" fill="#E79D67"/>
<path d="M2.16772 16.0763H5.41724C6.08459 16.0763 6.62559 16.6173 6.62559 17.2847V18.8114C6.62559 19.4788 6.08459 20.0198 5.41724 20.0198H3.37609C2.70874 20.0198 2.16772 19.4788 2.16772 18.8114V16.0763Z" fill="#E79D67"/>
<path d="M6.49536 10.3708H10.926V12.5862H6.49536V10.3708Z" fill="#E79D67"/>
<path d="M8.88184 14.7726H17.7432V16.1824H8.88184V14.7726Z" fill="#E79D67"/>
<path d="M15.9309 10.3708H20.3616V12.5862H15.9309V10.3708Z" fill="#E79D67"/>
<path d="M19.9978 16.4189H24.4556V18.8112C24.4556 19.4786 23.9147 20.0195 23.2474 20.0195H21.2062C20.5388 20.0195 19.9978 19.4786 19.9978 18.8112V16.4189Z" fill="#E79D67"/>
</svg>
