<svg width="30" height="24" viewBox="0 0 30 24" fill="none" xmlns="http://www.w3.org/2000/svg">
<path fill-rule="evenodd" clip-rule="evenodd" d="M21.6906 3.17535H9.27377C9.10312 3.17535 8.95022 3.28076 8.88955 3.44027L5.11089 13.374C5.09314 13.4207 5.08404 13.4702 5.08404 13.5202V18.4783H25.8804V13.5202C25.8804 13.4702 25.8712 13.4207 25.8535 13.374L22.0748 3.44027C22.0141 3.28076 21.8612 3.17535 21.6906 3.17535ZM9.27377 0.821045C8.1258 0.821045 7.09721 1.53028 6.68907 2.60324L2.91043 12.537C2.79097 12.851 2.72974 13.1842 2.72974 13.5202V19.4498C2.72974 20.2135 3.3488 20.8326 4.11242 20.8326H28.2346V13.5202C28.2346 13.1842 28.1734 12.851 28.0539 12.537L24.2752 2.60324C23.8671 1.53028 22.8386 0.821045 21.6906 0.821045H9.27377Z" fill="#E79D67"/>
<path fill-rule="evenodd" clip-rule="evenodd" d="M0.963867 8.828C0.963867 8.28624 1.40306 7.84705 1.94482 7.84705H29.0192C29.561 7.84705 30.0002 8.28624 30.0002 8.828C30.0002 9.36977 29.561 9.80895 29.0192 9.80895H1.94482C1.40306 9.80895 0.963867 9.36977 0.963867 8.828Z" fill="#E79D67"/>
<path d="M2.72974 18.8715H6.44804C7.21167 18.8715 7.83071 19.4905 7.83071 20.2542V22.0012C7.83071 22.7648 7.21167 23.3839 6.44804 23.3839H4.11242C3.3488 23.3839 2.72974 22.7648 2.72974 22.0012V18.8715Z" fill="#E79D67"/>
<path d="M7.68164 12.343H12.7515V14.8779H7.68164V12.343Z" fill="#E79D67"/>
<path d="M10.4126 17.3798H20.5523V18.993H10.4126V17.3798Z" fill="#E79D67"/>
<path d="M18.4785 12.343H23.5484V14.8779H18.4785V12.343Z" fill="#E79D67"/>
<path d="M23.1321 19.2635H28.233V22.0009C28.233 22.7646 27.6141 23.3835 26.8504 23.3835H24.5148C23.7512 23.3835 23.1321 22.7646 23.1321 22.0009V19.2635Z" fill="#E79D67"/>
</svg>
