<svg width="23" height="18" viewBox="0 0 23 18" fill="none" xmlns="http://www.w3.org/2000/svg">
<path fill-rule="evenodd" clip-rule="evenodd" d="M15.8221 2.36491H6.47564C6.34719 2.36491 6.2321 2.44426 6.18643 2.56432L3.34215 10.0417C3.32879 10.0768 3.32194 10.1141 3.32194 10.1517V13.8838H18.9758V10.1517C18.9758 10.1141 18.9689 10.0768 18.9556 10.0417L16.1113 2.56432C16.0656 2.44426 15.9505 2.36491 15.8221 2.36491ZM6.47564 0.592773C5.61154 0.592773 4.8373 1.12663 4.53008 1.93427L1.68581 9.41163C1.59589 9.648 1.5498 9.89879 1.5498 10.1517V14.6151C1.5498 15.1899 2.01578 15.6559 2.59058 15.6559H20.7479V10.1517C20.7479 9.89879 20.7018 9.648 20.6119 9.41163L17.7676 1.93427C17.4604 1.12663 16.6862 0.592773 15.8221 0.592773H6.47564Z" fill="#E77667"/>
<path fill-rule="evenodd" clip-rule="evenodd" d="M0.220703 6.61974C0.220703 6.21194 0.551291 5.88135 0.959092 5.88135H21.3386C21.7464 5.88135 22.077 6.21194 22.077 6.61974C22.077 7.02754 21.7464 7.35812 21.3386 7.35812H0.959092C0.551291 7.35812 0.220703 7.02754 0.220703 6.61974Z" fill="#E77667"/>
<path d="M1.5498 14.1797H4.34865C4.92345 14.1797 5.38942 14.6457 5.38942 15.2205V16.5355C5.38942 17.1103 4.92345 17.5763 4.34865 17.5763H2.59058C2.01578 17.5763 1.5498 17.1103 1.5498 16.5355V14.1797Z" fill="#E77667"/>
<path d="M5.27734 9.26562H9.09352V11.1737H5.27734V9.26562Z" fill="#E77667"/>
<path d="M7.33301 13.0566H14.9654V14.2709H7.33301V13.0566Z" fill="#E77667"/>
<path d="M13.4043 9.26562H17.2205V11.1737H13.4043V9.26562Z" fill="#E77667"/>
<path d="M16.9072 14.4746H20.7468V16.5351C20.7468 17.1099 20.2809 17.5758 19.7061 17.5758H17.948C17.3732 17.5758 16.9072 17.1099 16.9072 16.5351V14.4746Z" fill="#E77667"/>
</svg>
