<svg width="26" height="21" viewBox="0 0 26 21" fill="none" xmlns="http://www.w3.org/2000/svg">
<path fill-rule="evenodd" clip-rule="evenodd" d="M18.7381 2.82506H7.88672C7.73758 2.82506 7.60396 2.91719 7.55094 3.05658L4.24868 11.738C4.23316 11.7787 4.22521 11.822 4.22521 11.8657V16.1987H22.3996V11.8657C22.3996 11.822 22.3916 11.7787 22.3762 11.738L19.0739 3.05658C19.0208 2.91719 18.8872 2.82506 18.7381 2.82506ZM7.88672 0.767578C6.88348 0.767578 5.98457 1.3874 5.62788 2.32508L2.32563 11.0064C2.22124 11.2809 2.16772 11.572 2.16772 11.8657V17.0478C2.16772 17.7151 2.70874 18.2561 3.37609 18.2561H24.4571V11.8657C24.4571 11.572 24.4035 11.2809 24.2992 11.0064L20.9969 2.32508C20.6402 1.3874 19.7414 0.767578 18.7381 0.767578H7.88672Z" fill="#404455"/>
<path fill-rule="evenodd" clip-rule="evenodd" d="M0.624512 7.76512C0.624512 7.29166 1.00833 6.90784 1.4818 6.90784H25.1428C25.6162 6.90784 26.0001 7.29166 26.0001 7.76512C26.0001 8.23858 25.6162 8.62239 25.1428 8.62239H1.4818C1.00833 8.62239 0.624512 8.23858 0.624512 7.76512Z" fill="#404455"/>
<path d="M2.16772 16.5422H5.41724C6.08459 16.5422 6.62559 17.0833 6.62559 17.7506V19.2774C6.62559 19.9447 6.08459 20.4858 5.41724 20.4858H3.37609C2.70874 20.4858 2.16772 19.9447 2.16772 19.2774V16.5422Z" fill="#404455"/>
<path d="M6.49536 10.8369H10.926V13.0522H6.49536V10.8369Z" fill="#404455"/>
<path d="M8.88184 15.2388H17.7432V16.6486H8.88184V15.2388Z" fill="#404455"/>
<path d="M15.9309 10.8369H20.3616V13.0522H15.9309V10.8369Z" fill="#404455"/>
<path d="M19.9978 16.885H24.4556V19.2773C24.4556 19.9446 23.9147 20.4856 23.2474 20.4856H21.2062C20.5388 20.4856 19.9978 19.9446 19.9978 19.2773V16.885Z" fill="#404455"/>
</svg>
