<svg width="34" height="26" viewBox="0 0 34 26" fill="none" xmlns="http://www.w3.org/2000/svg">
<path fill-rule="evenodd" clip-rule="evenodd" d="M23.5955 2.68016H9.46004C9.26578 2.68016 9.09172 2.80017 9.02265 2.98175L4.72099 14.2905C4.70078 14.3435 4.69042 14.4 4.69042 14.4568V20.1012H28.3652V14.4568C28.3652 14.4 28.3547 14.3435 28.3346 14.2905L24.0329 2.98175C23.9638 2.80017 23.7897 2.68016 23.5955 2.68016ZM9.46004 0C8.15319 0 6.98224 0.8074 6.5176 2.02887L2.21595 13.3375C2.07996 13.695 2.01025 14.0743 2.01025 14.4568V21.2072C2.01025 22.0765 2.715 22.7813 3.58432 22.7813H31.0453V14.4568C31.0453 14.0743 30.9755 13.695 30.8396 13.3375L26.5379 2.02887C26.0733 0.8074 24.9024 0 23.5955 0H9.46004Z" fill="#E79D67"/>
<path fill-rule="evenodd" clip-rule="evenodd" d="M0 9.11527C0 8.49852 0.499978 7.99854 1.11673 7.99854H31.9385C32.5552 7.99854 33.0552 8.49852 33.0552 9.11527C33.0552 9.73202 32.5552 10.232 31.9385 10.232H1.11673C0.499978 10.232 0 9.73202 0 9.11527Z" fill="#E79D67"/>
<path d="M2.01025 20.5488H6.24321C7.11253 20.5488 7.81726 21.2536 7.81726 22.1229V24.1117C7.81726 24.981 7.11253 25.6858 6.24321 25.6858H3.58432C2.715 25.6858 2.01025 24.981 2.01025 24.1117V20.5488Z" fill="#E79D67"/>
<path d="M7.64771 13.1167H13.4193V16.0025H7.64771V13.1167Z" fill="#E79D67"/>
<path d="M10.7566 18.8506H22.2997V20.6871H10.7566V18.8506Z" fill="#E79D67"/>
<path d="M19.939 13.1167H25.7105V16.0025H19.939V13.1167Z" fill="#E79D67"/>
<path d="M25.2366 20.9951H31.0435V24.1114C31.0435 24.9807 30.3389 25.6853 29.4696 25.6853H26.8107C25.9413 25.6853 25.2366 24.9807 25.2366 24.1114V20.9951Z" fill="#E79D67"/>
</svg>
