<svg width="24" height="19" viewBox="0 0 24 19" fill="none" xmlns="http://www.w3.org/2000/svg">
<path fill-rule="evenodd" clip-rule="evenodd" d="M17.1311 1.94595H6.86795C6.72691 1.94595 6.60053 2.03309 6.55038 2.16492L3.42713 10.3757C3.41245 10.4143 3.40493 10.4552 3.40493 10.4965V14.5946H20.5941V10.4965C20.5941 10.4552 20.5866 10.4143 20.5719 10.3757L17.4487 2.16492C17.3985 2.03309 17.2721 1.94595 17.1311 1.94595ZM6.86795 0C5.9191 0 5.06892 0.586216 4.73157 1.47307L1.60832 9.68382C1.50959 9.94338 1.45898 10.2188 1.45898 10.4965V15.3977C1.45898 16.0289 1.97066 16.5405 2.60184 16.5405H22.5401V10.4965C22.5401 10.2188 22.4895 9.94338 22.3907 9.68382L19.2675 1.47307C18.9301 0.586215 18.0799 0 17.1311 0H6.86795Z" fill="black"/>
<path fill-rule="evenodd" clip-rule="evenodd" d="M0 6.61776C0 6.16996 0.363012 5.80695 0.810811 5.80695H23.1892C23.637 5.80695 24 6.16996 24 6.61776C24 7.06556 23.637 7.42857 23.1892 7.42857H0.810811C0.363012 7.42857 0 7.06556 0 6.61776Z" fill="black"/>
<path d="M1.45898 14.9189H4.53234C5.16353 14.9189 5.6752 15.4306 5.6752 16.0617V17.5058C5.6752 18.1369 5.16353 18.6486 4.53234 18.6486H2.60184C1.97066 18.6486 1.45898 18.1369 1.45898 17.5058V14.9189Z" fill="black"/>
<path d="M5.55176 9.5238H9.74223V11.619H5.55176V9.5238Z" fill="black"/>
<path d="M7.80957 13.686H16.1905V15.0193H7.80957V13.686Z" fill="black"/>
<path d="M14.4766 9.5238H18.667V11.619H14.4766V9.5238Z" fill="black"/>
<path d="M18.3242 15.2432H22.5404V17.5058C22.5404 18.137 22.0288 18.6486 21.3976 18.6486H19.4671C18.8359 18.6486 18.3242 18.137 18.3242 17.5058V15.2432Z" fill="black"/>
</svg>
