<svg width="27" height="21" viewBox="0 0 27 21" fill="none" xmlns="http://www.w3.org/2000/svg">
<path fill-rule="evenodd" clip-rule="evenodd" d="M18.8602 2.95481H8.00877C7.85965 2.95481 7.72603 3.04694 7.67301 3.18633L4.37075 11.8677C4.35522 11.9084 4.34727 11.9518 4.34727 11.9954V16.3284H22.5217V11.9954C22.5217 11.9518 22.5137 11.9084 22.4982 11.8677L19.196 3.18633C19.1429 3.04695 19.0093 2.95481 18.8602 2.95481ZM8.00877 0.897339C7.00555 0.897339 6.10664 1.51715 5.74995 2.45483L2.44769 11.1361C2.34331 11.4106 2.28979 11.7018 2.28979 11.9954V17.1775C2.28979 17.8449 2.83079 18.3859 3.49816 18.3859H24.5791V11.9954C24.5791 11.7018 24.5256 11.4106 24.4212 11.1361L21.119 2.45483C20.7623 1.51715 19.8634 0.897339 18.8602 0.897339H8.00877Z" fill="#404455"/>
<path fill-rule="evenodd" clip-rule="evenodd" d="M0.746582 7.89478C0.746582 7.42131 1.1304 7.0376 1.60387 7.0376H25.2649C25.7383 7.0376 26.1221 7.42131 26.1221 7.89478C26.1221 8.36824 25.7383 8.75207 25.2649 8.75207H1.60387C1.1304 8.75207 0.746582 8.36824 0.746582 7.89478Z" fill="#404455"/>
<path d="M2.28979 16.6721H5.53931C6.20666 16.6721 6.74766 17.2132 6.74766 17.8805V19.4072C6.74766 20.0746 6.20666 20.6156 5.53931 20.6156H3.49816C2.83079 20.6156 2.28979 20.0746 2.28979 19.4072V16.6721Z" fill="#404455"/>
<path d="M6.61743 10.9668H11.0481V13.1821H6.61743V10.9668Z" fill="#404455"/>
<path d="M9.00415 15.3679H17.8655V16.7776H9.00415V15.3679Z" fill="#404455"/>
<path d="M16.053 10.9668H20.4837V13.1821H16.053V10.9668Z" fill="#404455"/>
<path d="M20.1199 17.0146H24.5777V19.4069C24.5777 20.0743 24.0368 20.6153 23.3694 20.6153H21.3283C20.6609 20.6153 20.1199 20.0743 20.1199 19.4069V17.0146Z" fill="#404455"/>
</svg>
