<svg width="23" height="24" viewBox="0 0 23 24" fill="none" xmlns="http://www.w3.org/2000/svg">
<path fill-rule="evenodd" clip-rule="evenodd" d="M15.8816 8.36442H6.53521C6.40676 8.36442 6.29167 8.44377 6.246 8.56383L3.40172 16.0412C3.38836 16.0763 3.38151 16.1136 3.38151 16.1512V19.8833H19.0353V16.1512C19.0353 16.1136 19.0285 16.0763 19.0151 16.0412L16.1708 8.56383C16.1252 8.44378 16.0101 8.36442 15.8816 8.36442ZM6.53521 6.59229C5.67111 6.59229 4.89687 7.12614 4.58965 7.93378L1.74538 15.4111C1.65546 15.6475 1.60938 15.8983 1.60938 16.1512V20.6146C1.60938 21.1894 2.07535 21.6554 2.65015 21.6554H20.8075V16.1512C20.8075 15.8983 20.7614 15.6475 20.6715 15.4111L17.8272 7.93378C17.52 7.12614 16.7457 6.59229 15.8816 6.59229H6.53521Z" fill="#E9CD68"/>
<path fill-rule="evenodd" clip-rule="evenodd" d="M0.280273 12.6192C0.280273 12.2114 0.610861 11.8809 1.01866 11.8809H21.3982C21.806 11.8809 22.1366 12.2114 22.1366 12.6192C22.1366 13.027 21.806 13.3576 21.3982 13.3576H1.01866C0.610861 13.3576 0.280273 13.027 0.280273 12.6192Z" fill="#E9CD68"/>
<path d="M1.60938 20.1792H4.40822C4.98302 20.1792 5.449 20.6452 5.449 21.22V22.535C5.449 23.1098 4.98302 23.5758 4.40822 23.5758H2.65015C2.07535 23.5758 1.60938 23.1098 1.60938 22.535V20.1792Z" fill="#E9CD68"/>
<path d="M5.33691 15.2651H9.15309V17.1732H5.33691V15.2651Z" fill="#E9CD68"/>
<path d="M7.39258 19.0562H15.0249V20.2704H7.39258V19.0562Z" fill="#E9CD68"/>
<path d="M13.4639 15.2651H17.28V17.1732H13.4639V15.2651Z" fill="#E9CD68"/>
<path d="M16.9668 20.4741H20.8064V22.5346C20.8064 23.1094 20.3404 23.5754 19.7656 23.5754H18.0076C17.4328 23.5754 16.9668 23.1094 16.9668 22.5346V20.4741Z" fill="#E9CD68"/>
<circle cx="17.4204" cy="5.27388" r="4.94426" fill="#E9CD68" stroke="white" stroke-width="0.659235"/>
<path d="M16.1016 4.96506V5.55798H17.1194V6.59299H17.7206V5.55798H18.7385V4.96506H17.7206V3.95605H17.1194V4.96506H16.1016Z" fill="white"/>
</svg>
