<svg width="34" height="27" viewBox="0 0 34 27" fill="none" xmlns="http://www.w3.org/2000/svg">
<path fill-rule="evenodd" clip-rule="evenodd" d="M23.7229 3.02341H9.58747C9.3932 3.02341 9.21914 3.14342 9.15007 3.325L4.84841 14.6337C4.82821 14.6868 4.81785 14.7432 4.81785 14.8001V20.4445H28.4925V14.8001C28.4925 14.7432 28.4822 14.6868 28.4619 14.6337L24.1602 3.325C24.0913 3.14344 23.9172 3.02341 23.7229 3.02341ZM9.58747 0.343262C8.28061 0.343262 7.10966 1.15065 6.64503 2.37212L2.34338 13.6807C2.20739 14.0383 2.1377 14.4176 2.1377 14.8001V21.5505C2.1377 22.4198 2.84242 23.1246 3.71175 23.1246H31.1727V14.8001C31.1727 14.4176 31.103 14.0383 30.9671 13.6807L26.6654 2.37212C26.2008 1.15065 25.0297 0.343262 23.7229 0.343262H9.58747Z" fill="#E9CD68"/>
<path fill-rule="evenodd" clip-rule="evenodd" d="M0.12793 9.45839C0.12793 8.84164 0.627908 8.3418 1.24466 8.3418H32.0665C32.6832 8.3418 33.1832 8.84164 33.1832 9.45839C33.1832 10.0751 32.6832 10.5751 32.0665 10.5751H1.24466C0.627908 10.5751 0.12793 10.0751 0.12793 9.45839Z" fill="#E9CD68"/>
<path d="M2.1377 20.8916H6.37063C7.23995 20.8916 7.9447 21.5964 7.9447 22.4657V24.4545C7.9447 25.3238 7.23995 26.0286 6.37063 26.0286H3.71175C2.84242 26.0286 2.1377 25.3238 2.1377 24.4545V20.8916Z" fill="#E9CD68"/>
<path d="M7.77539 13.46H13.5469V16.3458H7.77539V13.46Z" fill="#E9CD68"/>
<path d="M10.8843 19.1934H22.4273V21.0297H10.8843V19.1934Z" fill="#E9CD68"/>
<path d="M20.0664 13.46H25.8378V16.3458H20.0664V13.46Z" fill="#E9CD68"/>
<path d="M25.3643 21.3379H31.1712V24.4542C31.1712 25.3235 30.4665 26.0283 29.5971 26.0283H26.9384C26.069 26.0283 25.3643 25.3235 25.3643 24.4542V21.3379Z" fill="#E9CD68"/>
</svg>
