<svg width="27" height="21" viewBox="0 0 27 21" fill="none" xmlns="http://www.w3.org/2000/svg">
<path fill-rule="evenodd" clip-rule="evenodd" d="M18.8602 2.48875H8.00877C7.85965 2.48875 7.72603 2.58088 7.67301 2.72027L4.37075 11.4016C4.35522 11.4424 4.34727 11.4857 4.34727 11.5293V15.8624H22.5217V11.5293C22.5217 11.4857 22.5137 11.4424 22.4982 11.4016L19.196 2.72027C19.1429 2.58089 19.0093 2.48875 18.8602 2.48875ZM8.00877 0.431274C7.00555 0.431274 6.10664 1.05108 5.74995 1.98877L2.44769 10.6701C2.34331 10.9445 2.28979 11.2357 2.28979 11.5293V16.7114C2.28979 17.3788 2.83079 17.9198 3.49816 17.9198H24.5791V11.5293C24.5791 11.2357 24.5256 10.9445 24.4212 10.6701L21.119 1.98877C20.7623 1.05108 19.8634 0.431274 18.8602 0.431274H8.00877Z" fill="#85C2A5"/>
<path fill-rule="evenodd" clip-rule="evenodd" d="M0.746582 7.42871C0.746582 6.95525 1.1304 6.57153 1.60387 6.57153H25.2649C25.7383 6.57153 26.1221 6.95525 26.1221 7.42871C26.1221 7.90218 25.7383 8.28601 25.2649 8.28601H1.60387C1.1304 8.28601 0.746582 7.90218 0.746582 7.42871Z" fill="#85C2A5"/>
<path d="M2.28979 16.2061H5.53931C6.20666 16.2061 6.74766 16.7471 6.74766 17.4144V18.9412C6.74766 19.6085 6.20666 20.1496 5.53931 20.1496H3.49816C2.83079 20.1496 2.28979 19.6085 2.28979 18.9412V16.2061Z" fill="#85C2A5"/>
<path d="M6.61743 10.5006H11.0481V12.716H6.61743V10.5006Z" fill="#85C2A5"/>
<path d="M9.00415 14.902H17.8655V16.3117H9.00415V14.902Z" fill="#85C2A5"/>
<path d="M16.053 10.5006H20.4837V12.716H16.053V10.5006Z" fill="#85C2A5"/>
<path d="M20.1199 16.5487H24.5777V18.941C24.5777 19.6083 24.0368 20.1494 23.3694 20.1494H21.3283C20.6609 20.1494 20.1199 19.6083 20.1199 18.941V16.5487Z" fill="#85C2A5"/>
</svg>
