<svg width="30" height="23" viewBox="0 0 30 23" fill="none" xmlns="http://www.w3.org/2000/svg">
<path fill-rule="evenodd" clip-rule="evenodd" d="M21.2107 2.46806H8.79377C8.62314 2.46806 8.47024 2.57348 8.40957 2.73298L4.63091 12.6667C4.61315 12.7134 4.60405 12.7629 4.60405 12.8129V17.771H25.4004V12.8129C25.4004 12.7629 25.3912 12.7134 25.3735 12.6667L21.5949 2.73298C21.5341 2.57349 21.3812 2.46806 21.2107 2.46806ZM8.79377 0.11377C7.64582 0.11377 6.61723 0.822995 6.20909 1.89595L2.43043 11.8296C2.31099 12.1437 2.24976 12.4769 2.24976 12.8129V18.7426C2.24976 19.5062 2.8688 20.1253 3.63244 20.1253H27.7546V12.8129C27.7546 12.4769 27.6934 12.1437 27.5739 11.8296L23.7953 1.89595C23.3871 0.822995 22.3586 0.11377 21.2107 0.11377H8.79377Z" fill="#85C2A5"/>
<path fill-rule="evenodd" clip-rule="evenodd" d="M0.483887 8.12061C0.483887 7.57884 0.923076 7.13977 1.46484 7.13977H28.5392C29.081 7.13977 29.5202 7.57884 29.5202 8.12061C29.5202 8.66238 29.081 9.10158 28.5392 9.10158H1.46484C0.923076 9.10158 0.483887 8.66238 0.483887 8.12061Z" fill="#85C2A5"/>
<path d="M2.24976 18.1642H5.96806C6.73168 18.1642 7.35073 18.7833 7.35073 19.5469V21.2939C7.35073 22.0575 6.73168 22.6766 5.96806 22.6766H3.63244C2.8688 22.6766 2.24976 22.0575 2.24976 21.2939V18.1642Z" fill="#85C2A5"/>
<path d="M7.20166 11.6357H12.2715V14.1707H7.20166V11.6357Z" fill="#85C2A5"/>
<path d="M9.93262 16.672H20.0723V18.2851H9.93262V16.672Z" fill="#85C2A5"/>
<path d="M17.9985 11.6357H23.0684V14.1707H17.9985V11.6357Z" fill="#85C2A5"/>
<path d="M22.6521 18.5563H27.753V21.2937C27.753 22.0573 27.1341 22.6764 26.3705 22.6764H24.0348C23.2712 22.6764 22.6521 22.0573 22.6521 21.2937V18.5563Z" fill="#85C2A5"/>
</svg>
