<svg width="23" height="24" viewBox="0 0 23 24" fill="none" xmlns="http://www.w3.org/2000/svg">
<path fill-rule="evenodd" clip-rule="evenodd" d="M15.6014 8.36442H6.25493C6.12649 8.36442 6.0114 8.44377 5.96573 8.56383L3.12145 16.0412C3.10808 16.0763 3.10123 16.1136 3.10123 16.1512V19.8833H18.7551V16.1512C18.7551 16.1136 18.7482 16.0763 18.7349 16.0412L15.8906 8.56383C15.8449 8.44378 15.7298 8.36442 15.6014 8.36442ZM6.25493 6.59229C5.39084 6.59229 4.6166 7.12614 4.30938 7.93378L1.4651 15.4111C1.37519 15.6475 1.3291 15.8983 1.3291 16.1512V20.6146C1.3291 21.1894 1.79507 21.6554 2.36988 21.6554H20.5272V16.1512C20.5272 15.8983 20.4811 15.6475 20.3912 15.4111L17.5469 7.93378C17.2397 7.12614 16.4655 6.59229 15.6014 6.59229H6.25493Z" fill="#E79D67"/>
<path fill-rule="evenodd" clip-rule="evenodd" d="M0 12.6192C0 12.2114 0.330588 11.8809 0.738389 11.8809H21.1179C21.5257 11.8809 21.8563 12.2114 21.8563 12.6192C21.8563 13.027 21.5257 13.3576 21.1179 13.3576H0.738389C0.330588 13.3576 0 13.027 0 12.6192Z" fill="#E79D67"/>
<path d="M1.3291 20.1792H4.12795C4.70275 20.1792 5.16872 20.6452 5.16872 21.22V22.535C5.16872 23.1098 4.70275 23.5758 4.12795 23.5758H2.36988C1.79507 23.5758 1.3291 23.1098 1.3291 22.535V20.1792Z" fill="#E79D67"/>
<path d="M5.05664 15.2651H8.87282V17.1732H5.05664V15.2651Z" fill="#E79D67"/>
<path d="M7.1123 19.0562H14.7447V20.2704H7.1123V19.0562Z" fill="#E79D67"/>
<path d="M13.1836 15.2651H16.9998V17.1732H13.1836V15.2651Z" fill="#E79D67"/>
<path d="M16.6865 20.4741H20.5261V22.5346C20.5261 23.1094 20.0602 23.5754 19.4854 23.5754H17.7273C17.1525 23.5754 16.6865 23.1094 16.6865 22.5346V20.4741Z" fill="#E79D67"/>
<circle cx="17.1391" cy="5.27388" r="4.94426" fill="#E79D67" stroke="white" stroke-width="0.659235"/>
<path d="M17.1398 5.2995H18.4582L17.1398 2.63721V4.58956H15.8213L17.1398 7.25185V5.2995Z" fill="white"/>
</svg>
