<svg width="26" height="21" viewBox="0 0 26 21" fill="none" xmlns="http://www.w3.org/2000/svg">
<path fill-rule="evenodd" clip-rule="evenodd" d="M18.5837 2.8563H7.73241C7.58327 2.8563 7.44965 2.94843 7.39663 3.08782L4.09437 11.7692C4.07886 11.8099 4.0709 11.8532 4.0709 11.8969V16.2299H22.2452V11.8969C22.2452 11.8532 22.2373 11.8099 22.2218 11.7692L18.9195 3.08782C18.8666 2.94844 18.7329 2.8563 18.5837 2.8563ZM7.73241 0.798828C6.72917 0.798828 5.83026 1.41864 5.47358 2.35632L2.17133 11.0376C2.06693 11.3121 2.01343 11.6033 2.01343 11.8969V17.079C2.01343 17.7463 2.55443 18.2874 3.22178 18.2874H24.3028V11.8969C24.3028 11.6033 24.2493 11.3121 24.1449 11.0376L20.8426 2.35632C20.486 1.41864 19.587 0.798828 18.5837 0.798828H7.73241Z" fill="#404455"/>
<path fill-rule="evenodd" clip-rule="evenodd" d="M0.470459 7.79614C0.470459 7.32268 0.854278 6.93896 1.32774 6.93896H24.9888C25.4622 6.93896 25.8461 7.32268 25.8461 7.79614C25.8461 8.26961 25.4622 8.65344 24.9888 8.65344H1.32774C0.854278 8.65344 0.470459 8.26961 0.470459 7.79614Z" fill="#404455"/>
<path d="M2.01343 16.5732H5.26293C5.93029 16.5732 6.4713 17.1143 6.4713 17.7816V19.3084C6.4713 19.9757 5.93029 20.5168 5.26293 20.5168H3.22178C2.55443 20.5168 2.01343 19.9757 2.01343 19.3084V16.5732Z" fill="#404455"/>
<path d="M6.34106 10.8682H10.7717V13.0835H6.34106V10.8682Z" fill="#404455"/>
<path d="M8.72778 15.2695H17.589V16.6792H8.72778V15.2695Z" fill="#404455"/>
<path d="M15.7766 10.8682H20.2072V13.0835H15.7766V10.8682Z" fill="#404455"/>
<path d="M19.8438 16.9158H24.3016V19.308C24.3016 19.9754 23.7606 20.5164 23.0932 20.5164H21.0521C20.3848 20.5164 19.8438 19.9754 19.8438 19.308V16.9158Z" fill="#404455"/>
</svg>
