<svg width="30" height="23" viewBox="0 0 30 23" fill="none" xmlns="http://www.w3.org/2000/svg">
<path fill-rule="evenodd" clip-rule="evenodd" d="M21.1368 2.35527H8.72004C8.54939 2.35527 8.3965 2.46069 8.33582 2.62019L4.55717 12.554C4.53942 12.6006 4.53032 12.6501 4.53032 12.7001V17.6582H25.3265V12.7001C25.3265 12.6501 25.3175 12.6006 25.2997 12.554L21.521 2.62019C21.4604 2.4607 21.3075 2.35527 21.1368 2.35527ZM8.72004 0.000976562C7.57208 0.000976562 6.54349 0.710202 6.13535 1.78316L2.3567 11.7169C2.23724 12.0309 2.17603 12.3641 2.17603 12.7001V18.6298C2.17603 19.3934 2.79507 20.0125 3.5587 20.0125H27.6809V12.7001C27.6809 12.3641 27.6197 12.0309 27.5002 11.7169L23.7216 1.78316C23.3134 0.710202 22.2848 0.000976562 21.1368 0.000976562H8.72004Z" fill="#E9CD68"/>
<path fill-rule="evenodd" clip-rule="evenodd" d="M0.410645 8.00782C0.410645 7.46605 0.849834 7.02698 1.3916 7.02698H28.466C29.0078 7.02698 29.447 7.46605 29.447 8.00782C29.447 8.54958 29.0078 8.98879 28.466 8.98879H1.3916C0.849834 8.98879 0.410645 8.54958 0.410645 8.00782Z" fill="#E9CD68"/>
<path d="M2.17603 18.051H5.89431C6.65794 18.051 7.277 18.6701 7.277 19.4337V21.1807C7.277 21.9444 6.65794 22.5634 5.89431 22.5634H3.5587C2.79507 22.5634 2.17603 21.9444 2.17603 21.1807V18.051Z" fill="#E9CD68"/>
<path d="M7.12817 11.5229H12.198V14.0579H7.12817V11.5229Z" fill="#E9CD68"/>
<path d="M9.85913 16.5592H19.9987V18.1723H9.85913V16.5592Z" fill="#E9CD68"/>
<path d="M17.9248 11.5229H22.9945V14.0579H17.9248V11.5229Z" fill="#E9CD68"/>
<path d="M22.5786 18.443H27.6796V21.1804C27.6796 21.944 27.0605 22.5631 26.2968 22.5631H23.9613C23.1977 22.5631 22.5786 21.944 22.5786 21.1804V18.443Z" fill="#E9CD68"/>
</svg>
