<svg width="26" height="21" viewBox="0 0 26 21" fill="none" xmlns="http://www.w3.org/2000/svg">
<path fill-rule="evenodd" clip-rule="evenodd" d="M18.5837 2.39024H7.73241C7.58327 2.39024 7.44965 2.48237 7.39663 2.62176L4.09437 11.3031C4.07886 11.3439 4.0709 11.3872 4.0709 11.4308V15.7639H22.2452V11.4308C22.2452 11.3872 22.2373 11.3439 22.2218 11.3031L18.9195 2.62176C18.8666 2.48238 18.7329 2.39024 18.5837 2.39024ZM7.73241 0.332764C6.72917 0.332764 5.83026 0.952574 5.47358 1.89026L2.17133 10.5716C2.06693 10.846 2.01343 11.1372 2.01343 11.4308V16.6129C2.01343 17.2803 2.55443 17.8213 3.22178 17.8213H24.3028V11.4308C24.3028 11.1372 24.2493 10.846 24.1449 10.5716L20.8426 1.89026C20.486 0.952574 19.587 0.332764 18.5837 0.332764H7.73241Z" fill="#E9CD68"/>
<path fill-rule="evenodd" clip-rule="evenodd" d="M0.470459 7.33008C0.470459 6.85662 0.854278 6.4729 1.32774 6.4729H24.9888C25.4622 6.4729 25.8461 6.85662 25.8461 7.33008C25.8461 7.80354 25.4622 8.18738 24.9888 8.18738H1.32774C0.854278 8.18738 0.470459 7.80354 0.470459 7.33008Z" fill="#E9CD68"/>
<path d="M2.01343 16.1071H5.26293C5.93029 16.1071 6.4713 16.6481 6.4713 17.3154V18.8422C6.4713 19.5095 5.93029 20.0506 5.26293 20.0506H3.22178C2.55443 20.0506 2.01343 19.5095 2.01343 18.8422V16.1071Z" fill="#E9CD68"/>
<path d="M6.34106 10.4021H10.7717V12.6174H6.34106V10.4021Z" fill="#E9CD68"/>
<path d="M8.72778 14.8033H17.589V16.2131H8.72778V14.8033Z" fill="#E9CD68"/>
<path d="M15.7766 10.4021H20.2072V12.6174H15.7766V10.4021Z" fill="#E9CD68"/>
<path d="M19.8438 16.4497H24.3016V18.842C24.3016 19.5093 23.7606 20.0504 23.0932 20.0504H21.0521C20.3848 20.0504 19.8438 19.5093 19.8438 18.842V16.4497Z" fill="#E9CD68"/>
</svg>
