<svg width="34" height="27" viewBox="0 0 34 27" fill="none" xmlns="http://www.w3.org/2000/svg">
<path fill-rule="evenodd" clip-rule="evenodd" d="M23.5955 3.15183H9.46003C9.26578 3.15183 9.09172 3.27184 9.02265 3.45342L4.72099 14.7621C4.70077 14.8152 4.69041 14.8716 4.69041 14.9285V20.5729H28.3652V14.9285C28.3652 14.8716 28.3547 14.8152 28.3346 14.7621L24.0329 3.45342C23.9638 3.27186 23.7897 3.15183 23.5955 3.15183ZM9.46003 0.47168C8.15319 0.47168 6.98224 1.27907 6.5176 2.50054L2.21594 13.8092C2.07996 14.1667 2.01025 14.546 2.01025 14.9285V21.6789C2.01025 22.5482 2.71498 23.253 3.58432 23.253H31.0453V14.9285C31.0453 14.546 30.9755 14.1667 30.8396 13.8092L26.5379 2.50054C26.0733 1.27907 24.9024 0.47168 23.5955 0.47168H9.46003Z" fill="#85C2A5"/>
<path fill-rule="evenodd" clip-rule="evenodd" d="M0 9.58681C0 8.97006 0.499978 8.47021 1.11673 8.47021H31.9385C32.5553 8.47021 33.0552 8.97006 33.0552 9.58681C33.0552 10.2036 32.5553 10.7036 31.9385 10.7036H1.11673C0.499978 10.7036 0 10.2036 0 9.58681Z" fill="#85C2A5"/>
<path d="M2.01025 21.0205H6.24321C7.11253 21.0205 7.81726 21.7253 7.81726 22.5946V24.5834C7.81726 25.4527 7.11253 26.1575 6.24321 26.1575H3.58432C2.71498 26.1575 2.01025 25.4527 2.01025 24.5834V21.0205Z" fill="#85C2A5"/>
<path d="M7.64771 13.5884H13.4193V16.4742H7.64771V13.5884Z" fill="#85C2A5"/>
<path d="M10.7566 19.3218H22.2998V21.1581H10.7566V19.3218Z" fill="#85C2A5"/>
<path d="M19.9387 13.5884H25.7103V16.4742H19.9387V13.5884Z" fill="#85C2A5"/>
<path d="M25.2366 21.4668H31.0435V24.5831C31.0435 25.4524 30.3389 26.1572 29.4696 26.1572H26.8107C25.9413 26.1572 25.2366 25.4524 25.2366 24.5831V21.4668Z" fill="#85C2A5"/>
</svg>
