<svg width="20" height="27" viewBox="0 0 20 27" fill="none" xmlns="http://www.w3.org/2000/svg">
<path d="M5.15083 23.6144C5.56879 23.1964 5.56879 22.5187 5.15083 22.1008C4.73287 21.6828 4.05522 21.6828 3.63726 22.1008L1.11464 24.6234C0.69668 25.0414 0.69668 25.719 1.11464 26.137C1.5326 26.5549 2.21025 26.5549 2.62821 26.137L5.15083 23.6144Z" fill="#404455"/>
<path d="M14.3143 23.6144C13.8963 23.1964 13.8963 22.5187 14.3143 22.1008C14.7322 21.6828 15.4099 21.6828 15.8278 22.1008L18.3504 24.6234C18.7684 25.0414 18.7684 25.719 18.3504 26.137C17.9325 26.5549 17.2548 26.5549 16.8369 26.137L14.3143 23.6144Z" fill="#404455"/>
<path d="M17.6606 2H2.32026C1.72917 2 1.25 2.47917 1.25 3.07026V18.4106C1.25 19.0017 1.72917 19.4809 2.32026 19.4809H17.6606C18.2517 19.4809 18.7309 19.0017 18.7309 18.4106V3.07026C18.7309 2.47917 18.2517 2 17.6606 2Z" stroke="#404455" stroke-width="2.14051"/>
<path d="M5.88795 15.9133C6.67606 15.9133 7.31495 15.2744 7.31495 14.4863C7.31495 13.6982 6.67606 13.0593 5.88795 13.0593C5.09983 13.0593 4.46094 13.6982 4.46094 14.4863C4.46094 15.2744 5.09983 15.9133 5.88795 15.9133Z" fill="#404455"/>
<path d="M13.5581 15.9133C14.3462 15.9133 14.9851 15.2744 14.9851 14.4863C14.9851 13.6982 14.3462 13.0593 13.5581 13.0593C12.77 13.0593 12.1311 13.6982 12.1311 14.4863C12.1311 15.2744 12.77 15.9133 13.5581 15.9133Z" fill="#404455"/>
<path d="M18.9095 5.03247H1.7854V6.10273H18.9095V5.03247Z" fill="#404455"/>
<path d="M9.8125 5.21076V10.3837H10.8828V5.21076H9.8125Z" fill="#404455"/>
<path d="M18.9095 10.2052H1.7854V11.2755H18.9095V10.2052Z" fill="#404455"/>
<path d="M16.4116 23.7617H3.03345V24.832H16.4116V23.7617Z" fill="#404455"/>
</svg>
