<svg width="26" height="35" viewBox="0 0 26 35" fill="none" xmlns="http://www.w3.org/2000/svg">
<path d="M6.76316 30.1557C7.30762 29.6112 7.30762 28.7285 6.76316 28.1841C6.21871 27.6396 5.33598 27.6396 4.79152 28.1841L1.50546 31.4701C0.961007 32.0146 0.961007 32.8973 1.50546 33.4418C2.04991 33.9862 2.93265 33.9862 3.4771 33.4418L6.76316 30.1557Z" fill="#87AAAB"/>
<path d="M18.6997 30.1557C18.1553 29.6112 18.1553 28.7285 18.6997 28.1841C19.2442 27.6396 20.1269 27.6396 20.6714 28.1841L23.9574 31.4701C24.5019 32.0146 24.5019 32.8973 23.9574 33.4418C23.413 33.9862 22.5302 33.9862 21.9858 33.4418L18.6997 30.1557Z" fill="#87AAAB"/>
<path d="M23.0588 2H3.0758C2.30583 2 1.68164 2.62419 1.68164 3.39416V23.3771C1.68164 24.1471 2.30583 24.7713 3.0758 24.7713H23.0588C23.8288 24.7713 24.4529 24.1471 24.4529 23.3771V3.39416C24.4529 2.62419 23.8288 2 23.0588 2Z" stroke="#87AAAB" stroke-width="2.78832"/>
<path d="M7.72314 20.124C8.74977 20.124 9.58202 19.2918 9.58202 18.2651C9.58202 17.2385 8.74977 16.4062 7.72314 16.4062C6.69651 16.4062 5.86426 17.2385 5.86426 18.2651C5.86426 19.2918 6.69651 20.124 7.72314 20.124Z" fill="#87AAAB"/>
<path d="M17.7148 20.124C18.7415 20.124 19.5737 19.2918 19.5737 18.2651C19.5737 17.2385 18.7415 16.4062 17.7148 16.4062C16.6882 16.4062 15.856 17.2385 15.856 18.2651C15.856 19.2918 16.6882 20.124 17.7148 20.124Z" fill="#87AAAB"/>
<path d="M24.6854 5.9502H2.37891V7.34435H24.6854V5.9502Z" fill="#87AAAB"/>
<path d="M12.8354 6.18246V12.9209H14.2296V6.18246H12.8354Z" fill="#87AAAB"/>
<path d="M24.6854 12.6885H2.37891V14.0826H24.6854V12.6885Z" fill="#87AAAB"/>
<path d="M21.4318 30.3477H4.00488V31.7418H21.4318V30.3477Z" fill="#87AAAB"/>
</svg>
