<svg width="23" height="31" viewBox="0 0 23 31" fill="none" xmlns="http://www.w3.org/2000/svg">
<path d="M6.00195 26.6752C6.4802 26.1969 6.4802 25.4215 6.00195 24.9432C5.52369 24.465 4.74828 24.465 4.27002 24.9432L1.38349 27.8298C0.90523 28.308 0.90523 29.0834 1.38349 29.5617C1.86174 30.0399 2.63715 30.0399 3.11541 29.5617L6.00195 26.6752Z" fill="#87AAAB"/>
<path d="M16.4873 26.6752C16.0091 26.1969 16.0091 25.4215 16.4873 24.9432C16.9656 24.465 17.741 24.465 18.2192 24.9432L21.1058 27.8298C21.584 28.308 21.584 29.0834 21.1058 29.5617C20.6275 30.04 19.8521 30.04 19.3738 29.5617L16.4873 26.6752Z" fill="#87AAAB"/>
<path d="M20.3164 1.94263H2.76298C2.08663 1.94263 1.53833 2.49092 1.53833 3.16728V20.7207C1.53833 21.397 2.08663 21.9453 2.76298 21.9453H20.3164C20.9927 21.9453 21.541 21.397 21.541 20.7207V3.16728C21.541 2.49092 20.9927 1.94263 20.3164 1.94263Z" stroke="#87AAAB" stroke-width="2.44931"/>
<path d="M6.84527 17.863C7.74708 17.863 8.47815 17.132 8.47815 16.2302C8.47815 15.3284 7.74708 14.5973 6.84527 14.5973C5.94346 14.5973 5.2124 15.3284 5.2124 16.2302C5.2124 17.132 5.94346 17.863 6.84527 17.863Z" fill="#87AAAB"/>
<path d="M15.6221 17.863C16.5239 17.863 17.255 17.132 17.255 16.2302C17.255 15.3284 16.5239 14.5973 15.6221 14.5973C14.7203 14.5973 13.9893 15.3284 13.9893 16.2302C13.9893 17.132 14.7203 17.863 15.6221 17.863Z" fill="#87AAAB"/>
<path d="M21.7453 5.4126H2.15088V6.63725H21.7453V5.4126Z" fill="#87AAAB"/>
<path d="M11.3359 5.6166V11.5358H12.5606V5.6166H11.3359Z" fill="#87AAAB"/>
<path d="M21.7453 11.3315H2.15088V12.5562H21.7453V11.3315Z" fill="#87AAAB"/>
<path d="M18.8873 26.8438H3.5791V28.0684H18.8873V26.8438Z" fill="#87AAAB"/>
</svg>
