<svg width="20" height="27" viewBox="0 0 20 27" fill="none" xmlns="http://www.w3.org/2000/svg">
<path d="M5.15083 23.1483C5.56879 22.7303 5.56879 22.0527 5.15083 21.6347C4.73287 21.2168 4.05522 21.2168 3.63726 21.6347L1.11464 24.1573C0.69668 24.5753 0.69668 25.2529 1.11464 25.6709C1.5326 26.0889 2.21025 26.0889 2.62821 25.6709L5.15083 23.1483Z" fill="#87AAAB"/>
<path d="M14.3143 23.1483C13.8963 22.7303 13.8963 22.0527 14.3143 21.6347C14.7322 21.2168 15.4099 21.2168 15.8278 21.6347L18.3504 24.1573C18.7684 24.5753 18.7684 25.2529 18.3504 25.6709C17.9325 26.0889 17.2548 26.0889 16.8369 25.6709L14.3143 23.1483Z" fill="#87AAAB"/>
<path d="M17.6606 1.53394H2.32026C1.72917 1.53394 1.25 2.01311 1.25 2.60419V17.9446C1.25 18.5356 1.72917 19.0148 2.32026 19.0148H17.6606C18.2517 19.0148 18.7309 18.5356 18.7309 17.9446V2.60419C18.7309 2.01311 18.2517 1.53394 17.6606 1.53394Z" stroke="#87AAAB" stroke-width="2.14051"/>
<path d="M5.88795 15.4472C6.67606 15.4472 7.31495 14.8083 7.31495 14.0201C7.31495 13.232 6.67606 12.5931 5.88795 12.5931C5.09983 12.5931 4.46094 13.232 4.46094 14.0201C4.46094 14.8083 5.09983 15.4472 5.88795 15.4472Z" fill="#87AAAB"/>
<path d="M13.5581 15.4472C14.3462 15.4472 14.9851 14.8083 14.9851 14.0201C14.9851 13.232 14.3462 12.5931 13.5581 12.5931C12.77 12.5931 12.1311 13.232 12.1311 14.0201C12.1311 14.8083 12.77 15.4472 13.5581 15.4472Z" fill="#87AAAB"/>
<path d="M18.9095 4.56641H1.7854V5.63666H18.9095V4.56641Z" fill="#87AAAB"/>
<path d="M9.8125 4.7447V9.9176H10.8828V4.7447H9.8125Z" fill="#87AAAB"/>
<path d="M18.9095 9.73914H1.7854V10.8094H18.9095V9.73914Z" fill="#87AAAB"/>
<path d="M16.4116 23.2957H3.03345V24.3659H16.4116V23.2957Z" fill="#87AAAB"/>
</svg>
