<svg width="96" height="48" viewBox="0 0 96 48" fill="none" xmlns="http://www.w3.org/2000/svg">
<path d="M35.826 2.37158C35.826 2.59093 35.7985 2.78324 35.7437 2.9485C35.6889 3.11076 35.6127 3.25199 35.5153 3.37218C35.4208 3.49237 35.3082 3.58852 35.1833 3.66064C35.0553 3.73276 34.9244 3.78985 34.7873 3.8259V3.84393C34.9548 3.87398 35.1102 3.93107 35.2564 4.01821C35.4026 4.10235 35.5275 4.21052 35.6371 4.33672C35.7437 4.46592 35.832 4.61616 35.896 4.79044C35.963 4.96472 35.9935 5.15702 35.9935 5.36435C35.9935 5.61375 35.9508 5.84212 35.8656 6.04945C35.7772 6.25678 35.6432 6.43707 35.4604 6.59031C35.2777 6.74355 35.0462 6.86074 34.769 6.94788C34.4888 7.03201 34.1598 7.07709 33.7761 7.07709H32.4663V0.758008H33.7029C34.0806 0.758008 34.4035 0.797069 34.6715 0.872192C34.9396 0.950315 35.1619 1.05849 35.3356 1.19971C35.5092 1.33794 35.6341 1.50921 35.7102 1.70753C35.7864 1.90585 35.826 2.1252 35.826 2.37159V2.37158ZM35.0096 2.39864C35.0096 2.10417 34.9061 1.86379 34.6959 1.67448C34.4827 1.48517 34.1537 1.39202 33.7029 1.39202H33.2735V3.57049H33.6938C34.1263 3.57049 34.4522 3.46532 34.6746 3.25799C34.9 3.05065 35.0096 2.76519 35.0096 2.3986L35.0096 2.39864ZM35.1315 5.30722C35.1315 4.96767 35.0188 4.69724 34.7934 4.49891C34.568 4.30059 34.2421 4.20143 33.8217 4.20143H33.2735V6.41597H33.776C34.2512 6.41597 34.5985 6.32282 34.8116 6.13652C35.0248 5.95022 35.1315 5.67379 35.1315 5.30722H35.1315ZM40.1055 7.07706H39.4171V6.58127H39.3988C39.3806 6.61732 39.341 6.67142 39.28 6.74052C39.2161 6.80963 39.1369 6.87875 39.0425 6.94185C38.945 7.00495 38.8292 7.06204 38.6952 7.11312C38.5582 7.1612 38.4059 7.18524 38.2383 7.18524C38.0403 7.18524 37.8637 7.15519 37.7053 7.0981C37.5469 7.04101 37.4129 6.94786 37.3032 6.81866C37.1905 6.69246 37.1052 6.52419 37.0474 6.31986C36.9865 6.11553 36.959 5.86312 36.959 5.56565V2.68103H37.7114V5.51157C37.7114 5.87516 37.7693 6.13657 37.8911 6.2928C38.0129 6.44905 38.1987 6.52718 38.4516 6.52718C38.6678 6.52718 38.8506 6.47309 38.9998 6.36492C39.1491 6.25975 39.2648 6.15458 39.3531 6.04941V2.68102H40.1055V7.07706ZM43.6844 7.07702V4.24648C43.6844 3.87388 43.6235 3.60646 43.4956 3.44418C43.3707 3.28492 43.1758 3.20379 42.9169 3.20379C42.6945 3.20379 42.5087 3.25788 42.3595 3.36905C42.2102 3.47722 42.0914 3.5854 42.0061 3.68756V7.07695H41.2568V2.68095H41.9422V3.17674H41.9604C41.9787 3.14069 42.0183 3.08659 42.0823 3.01448C42.1432 2.94537 42.2224 2.87926 42.3229 2.81315C42.4204 2.75005 42.5392 2.69296 42.6732 2.64489C42.8103 2.59681 42.9656 2.57277 43.1392 2.57277C43.3372 2.57277 43.5169 2.59982 43.6753 2.65991C43.8367 2.717 43.9738 2.81015 44.0865 2.93635C44.1962 3.06556 44.2845 3.23383 44.3454 3.43515C44.4063 3.63948 44.4368 3.89189 44.4368 4.19237V7.07699L43.6844 7.07702ZM45.3567 4.9436C45.3567 4.49589 45.4146 4.12329 45.5333 3.82583C45.6491 3.52535 45.8014 3.28497 45.9872 3.10167C46.173 2.91838 46.3832 2.78917 46.6177 2.71405C46.8522 2.63592 47.0898 2.59986 47.3244 2.59986C47.4675 2.59986 47.5893 2.60888 47.696 2.62991C47.7995 2.65395 47.8879 2.67799 47.9549 2.70803V0.604647L48.7072 0.520508V7.07697H48.0188V6.60822H48.0006C47.9823 6.64427 47.9488 6.69535 47.9 6.75845C47.8482 6.82456 47.7812 6.88766 47.696 6.95076C47.6076 7.01687 47.501 7.07095 47.37 7.11602C47.2391 7.16109 47.0898 7.18513 46.9162 7.18513C46.706 7.18513 46.505 7.14306 46.3161 7.06193C46.1273 6.9808 45.9628 6.84859 45.8197 6.6683C45.6795 6.48801 45.5638 6.25664 45.4816 5.97119C45.3993 5.68873 45.3567 5.34619 45.3567 4.94357L45.3567 4.9436ZM47.1203 6.52711C47.236 6.52711 47.3426 6.51209 47.434 6.47903C47.5284 6.44899 47.6076 6.41292 47.6746 6.36485C47.7447 6.31978 47.8025 6.2717 47.8482 6.22362C47.8939 6.17555 47.9305 6.13348 47.9548 6.09442V3.38711C47.8878 3.34204 47.8086 3.30598 47.7173 3.27593C47.6289 3.24589 47.5162 3.23086 47.3792 3.23086C47.2055 3.23086 47.0441 3.25791 46.8918 3.318C46.7395 3.37509 46.6085 3.47125 46.4989 3.60646C46.3862 3.73868 46.2978 3.91295 46.2339 4.1293C46.1699 4.34264 46.1364 4.60406 46.1364 4.91353C46.1364 5.22002 46.1638 5.47543 46.2156 5.67976C46.2674 5.88408 46.3405 6.04935 46.4319 6.17254C46.5263 6.29874 46.6299 6.38889 46.7486 6.44297C46.8644 6.50006 46.9893 6.52711 47.1202 6.52711H47.1203ZM52.7157 4.16534C52.7157 4.35464 52.7094 4.5169 52.6974 4.65512C52.6822 4.79034 52.67 4.91053 52.6608 5.0157H50.3855C50.4098 5.53253 50.5226 5.91416 50.7236 6.16055C50.9246 6.40394 51.214 6.52713 51.5917 6.52713C51.7227 6.52713 51.8384 6.51211 51.945 6.47905C52.0486 6.44901 52.14 6.41295 52.2192 6.37088C52.2954 6.32881 52.3593 6.28374 52.4141 6.24167C52.4659 6.1996 52.5055 6.16655 52.5299 6.14251L52.807 6.66234C52.7766 6.69539 52.7309 6.73746 52.6669 6.79756C52.606 6.85465 52.5238 6.91174 52.4172 6.96883C52.3136 7.02893 52.1826 7.08001 52.0273 7.12208C51.8719 7.16415 51.6922 7.18518 51.479 7.18518C51.2018 7.18518 50.949 7.14011 50.7236 7.04696C50.4982 6.95681 50.3063 6.81258 50.1479 6.62027C49.9895 6.43097 49.8708 6.18457 49.7824 5.8901C49.6941 5.59263 49.6514 5.23805 49.6514 4.82341C49.6514 4.43279 49.6971 4.09625 49.7885 3.81079C49.8768 3.52834 49.9987 3.29396 50.154 3.11067C50.3094 2.92738 50.4891 2.79216 50.6932 2.70502C50.8972 2.61488 51.1165 2.57281 51.3511 2.57281C51.7775 2.57281 52.1126 2.70502 52.3532 2.96945C52.5939 3.23387 52.7157 3.63351 52.7157 4.16537L52.7157 4.16534ZM51.3054 3.17675C51.0374 3.17675 50.8242 3.28492 50.6627 3.50428C50.5043 3.72363 50.4099 4.04214 50.3855 4.45682H52.009C52.0152 4.42677 52.0212 4.38169 52.0242 4.3246C52.0273 4.26751 52.0273 4.20441 52.0273 4.1383C52.0273 3.83181 51.9664 3.59443 51.8415 3.42616C51.7197 3.25789 51.54 3.17676 51.3054 3.17676L51.3054 3.17675ZM55.6368 3.57039C55.5881 3.5133 55.4997 3.43818 55.3687 3.34503C55.2378 3.24888 55.0702 3.20381 54.857 3.20381C54.659 3.20381 54.5098 3.24888 54.4032 3.33902C54.2996 3.43217 54.2448 3.54035 54.2448 3.66955C54.2448 3.83482 54.2935 3.97003 54.391 4.07821C54.4854 4.18338 54.6316 4.29756 54.8296 4.42076L55.1098 4.58602C55.4114 4.7633 55.649 4.9526 55.8226 5.15693C55.9962 5.36125 56.0845 5.62568 56.0845 5.95016C56.0845 6.29572 55.9597 6.59019 55.716 6.82755C55.4723 7.06492 55.122 7.18512 54.662 7.18512C54.4854 7.18512 54.327 7.16709 54.1899 7.13103C54.0529 7.09197 53.9341 7.0499 53.8335 7.00183C53.73 6.95375 53.6447 6.89966 53.5777 6.84257C53.5107 6.78247 53.4528 6.73139 53.4102 6.68031L53.7726 6.09437C53.8092 6.13343 53.8549 6.1755 53.9067 6.22358C53.9615 6.27166 54.0224 6.31973 54.0985 6.3648C54.1716 6.41288 54.2539 6.44894 54.3483 6.47899C54.4397 6.51204 54.5494 6.52706 54.6712 6.52706C54.8935 6.52706 55.0672 6.47598 55.1829 6.37982C55.3017 6.28066 55.3596 6.16348 55.3596 6.02225C55.3596 5.91709 55.3444 5.82995 55.3169 5.75182C55.2895 5.6767 55.2469 5.60759 55.192 5.5475C55.1372 5.4844 55.0702 5.42731 54.988 5.37322C54.9088 5.31914 54.8143 5.25604 54.7108 5.18993L54.4305 5.01565C54.1534 4.83837 53.9341 4.65207 53.7787 4.45676C53.6203 4.26145 53.5411 4.01205 53.5411 3.70556C53.5411 3.5403 53.5747 3.39005 53.6386 3.25184C53.7025 3.11662 53.7939 2.99643 53.9127 2.89727C54.0285 2.79511 54.1656 2.71698 54.3239 2.65989C54.4823 2.59979 54.6499 2.57275 54.8296 2.57275C55.0032 2.57275 55.1524 2.58778 55.2743 2.62083C55.3992 2.65689 55.5058 2.69895 55.5971 2.75004C55.6855 2.80112 55.7586 2.85521 55.8195 2.90628C55.8774 2.95737 55.9261 3.00244 55.9627 3.0385L55.6368 3.57039ZM59.3041 7.07696V4.24642C59.3041 3.88585 59.2493 3.62743 59.1457 3.46819C59.0391 3.30894 58.8716 3.23082 58.634 3.23082C58.5122 3.23082 58.4025 3.24584 58.305 3.27588C58.2106 3.30593 58.1253 3.34499 58.0492 3.39007C57.9761 3.43514 57.9121 3.48622 57.8542 3.54031C57.7994 3.5974 57.7537 3.64548 57.7172 3.68755V7.07693H56.9648V2.68093H57.6502V3.17672H57.6714C57.7019 3.12564 57.7476 3.06555 57.8085 2.99643C57.8694 2.92732 57.9486 2.86122 58.04 2.79511C58.1344 2.73201 58.241 2.67792 58.3659 2.63585C58.4908 2.59379 58.6279 2.57275 58.7832 2.57275C59.2919 2.57275 59.6483 2.76807 59.8584 3.15569C59.9011 3.09559 59.962 3.02949 60.0351 2.96037C60.1113 2.89126 60.1965 2.82515 60.297 2.76806C60.3945 2.71097 60.5072 2.66289 60.629 2.62684C60.7539 2.59079 60.891 2.57275 61.0372 2.57275C61.9419 2.57275 62.3927 3.08959 62.3927 4.12922V7.07691H61.6403V4.24637C61.6403 3.88579 61.5764 3.62738 61.4454 3.46814C61.3174 3.30889 61.1256 3.23076 60.8697 3.23076C60.6595 3.23076 60.4859 3.28185 60.3458 3.381C60.2087 3.48316 60.096 3.57932 60.0168 3.66946C60.029 3.73557 60.0381 3.80769 60.0443 3.88581C60.0505 3.96093 60.0534 4.04205 60.0534 4.1292V7.07689L59.3041 7.07696ZM64.2659 7.07689H63.5166V2.68089H64.2659V7.07689ZM63.8943 1.62012C63.742 1.62012 63.6171 1.57205 63.5257 1.47289C63.4313 1.37673 63.3856 1.24752 63.3856 1.08827C63.3856 0.935024 63.4313 0.811823 63.5257 0.712669C63.6171 0.616515 63.742 0.56543 63.8943 0.56543C64.0436 0.56543 64.1654 0.616515 64.2598 0.712669C64.3512 0.81183 64.3969 0.935024 64.3969 1.08827C64.3969 1.24752 64.3512 1.37673 64.2598 1.47289C64.1654 1.57205 64.0436 1.62012 63.8943 1.62012ZM67.8479 7.07689V4.24635C67.8479 3.87375 67.787 3.60633 67.6591 3.44405C67.5311 3.28479 67.3393 3.20366 67.0773 3.20366C66.855 3.20366 66.6722 3.25775 66.5229 3.36892C66.3737 3.47709 66.2549 3.58527 66.1696 3.68743V7.07682H65.4173V2.68082H66.1057V3.17661H66.1239C66.1421 3.14055 66.1818 3.08646 66.2427 3.01435C66.3066 2.94524 66.3858 2.87913 66.4864 2.81302C66.5838 2.74992 66.7026 2.69283 66.8366 2.64475C66.9737 2.59668 67.1291 2.57264 67.3027 2.57264C67.5007 2.57264 67.6804 2.59968 67.8388 2.65978C68.0002 2.71687 68.1373 2.81002 68.2469 2.93622C68.3596 3.06543 68.4449 3.2337 68.5089 3.43502C68.5698 3.63935 68.6003 3.89176 68.6003 4.19224V7.07686L67.8479 7.07689ZM70.4765 7.07686H69.7242V2.68086H70.4765V7.07686ZM70.1049 1.62008C69.9496 1.62008 69.8247 1.57201 69.7333 1.47285C69.6389 1.37669 69.5932 1.24748 69.5932 1.08823C69.5932 0.934984 69.6389 0.811785 69.7333 0.712631C69.8247 0.616477 69.9496 0.565392 70.1049 0.565392C70.2511 0.565392 70.3729 0.616477 70.4674 0.712631C70.5588 0.811792 70.6044 0.934984 70.6044 1.08823C70.6044 1.24748 70.5587 1.37669 70.4674 1.47285C70.3729 1.57201 70.2511 1.62008 70.1049 1.62008ZM73.5468 3.57024C73.4981 3.51315 73.4067 3.43802 73.2758 3.34488C73.1478 3.24872 72.9773 3.20366 72.7671 3.20366C72.5691 3.20366 72.4168 3.24872 72.3132 3.33887C72.2066 3.43202 72.1548 3.54019 72.1548 3.6694C72.1548 3.83466 72.2036 3.96988 72.298 4.07805C72.3955 4.18322 72.5417 4.29741 72.7397 4.4206L73.0169 4.58586C73.3214 4.76315 73.559 4.95245 73.7327 5.15678C73.9063 5.3611 73.9916 5.62552 73.9916 5.95001C73.9916 6.29556 73.8697 6.59003 73.626 6.82739C73.3793 7.06477 73.029 7.18496 72.5721 7.18496C72.3924 7.18496 72.234 7.16693 72.1 7.13088C71.9629 7.09182 71.8441 7.04975 71.7406 7.00167C71.64 6.95359 71.5548 6.89951 71.4878 6.84242C71.4177 6.78232 71.3629 6.73124 71.3202 6.68016L71.6827 6.09422C71.7193 6.13328 71.7649 6.17535 71.8167 6.22342C71.8685 6.2715 71.9325 6.31958 72.0056 6.36465C72.0786 6.41272 72.164 6.44879 72.2553 6.47883C72.3498 6.51189 72.4564 6.52691 72.5812 6.52691C72.8036 6.52691 72.9742 6.47582 73.0899 6.37967C73.2087 6.28051 73.2666 6.16332 73.2666 6.0221C73.2666 5.91693 73.2544 5.82979 73.227 5.75167C73.1995 5.67655 73.157 5.60744 73.1021 5.54735C73.0442 5.48425 72.9772 5.42716 72.895 5.37307C72.8158 5.31899 72.7244 5.25589 72.6178 5.18978L72.3406 5.0155C72.0604 4.83822 71.8441 4.65192 71.6857 4.45661C71.5273 4.26129 71.4481 4.0119 71.4481 3.70541C71.4481 3.54015 71.4817 3.3899 71.5456 3.25168C71.6126 3.11647 71.704 2.99628 71.8197 2.89712C71.9385 2.79495 72.0756 2.71682 72.234 2.65974C72.3924 2.59964 72.5599 2.5726 72.7396 2.5726C72.9132 2.5726 73.0594 2.58762 73.1843 2.62068C73.3092 2.65674 73.4158 2.6988 73.5042 2.74988C73.5955 2.80097 73.6686 2.85506 73.7265 2.90613C73.7874 2.95722 73.8331 3.00229 73.8697 3.03835L73.5468 3.57024ZM76.7755 3.28474H75.8008V5.71866C75.8008 6.03116 75.8404 6.2445 75.9227 6.35568C76.0019 6.46986 76.1389 6.52696 76.3308 6.52696C76.4405 6.52696 76.5379 6.51193 76.6171 6.47888C76.6963 6.44883 76.7573 6.42179 76.7938 6.39775L76.8943 6.9927C76.8669 7.01674 76.7908 7.0558 76.675 7.10689C76.5562 7.15797 76.3978 7.18501 76.1998 7.18501C75.8161 7.18501 75.5297 7.07984 75.3378 6.8695C75.1459 6.65916 75.0485 6.31061 75.0485 5.82081V3.28473H74.5124V2.79195L75.0485 2.68077L75.1337 1.45477H75.8008V2.68077H76.8699L76.7755 3.28474ZM80.4215 4.16515C80.4215 4.35445 80.4153 4.51672 80.4033 4.65494C80.3911 4.79015 80.3789 4.91035 80.3667 5.01552H78.0914C78.1188 5.53235 78.2315 5.91398 78.4325 6.16036C78.6335 6.40376 78.9229 6.52695 79.2976 6.52695C79.4285 6.52695 79.5473 6.51193 79.6509 6.47887C79.7575 6.44883 79.8489 6.41276 79.925 6.37069C80.0042 6.32862 80.0682 6.28356 80.12 6.24149C80.1717 6.19942 80.2113 6.16636 80.2357 6.14232L80.5159 6.66216C80.4855 6.69521 80.4367 6.73728 80.3758 6.79737C80.3149 6.85446 80.2296 6.91156 80.1261 6.96865C80.0195 7.02875 79.8915 7.07983 79.7362 7.12189C79.5808 7.16396 79.3981 7.18499 79.1879 7.18499C78.9107 7.18499 78.6579 7.13993 78.4325 7.04677C78.2071 6.95662 78.0152 6.81239 77.8568 6.62009C77.6984 6.43079 77.5766 6.18439 77.4913 5.88992C77.403 5.59244 77.3603 5.23787 77.3603 4.82322C77.3603 4.4326 77.406 4.09606 77.4944 3.81061C77.5857 3.52815 77.7076 3.29378 77.8599 3.11049C78.0152 2.92719 78.1949 2.79198 78.399 2.70484C78.6031 2.61469 78.8224 2.57262 79.0569 2.57262C79.4834 2.57262 79.8184 2.70484 80.0591 2.96926C80.3028 3.23369 80.4215 3.63332 80.4215 4.16518L80.4215 4.16515ZM79.0113 3.17657C78.7463 3.17657 78.5331 3.28474 78.3716 3.50409C78.2102 3.72345 78.1188 4.04196 78.0914 4.45663H79.7179C79.7241 4.42659 79.727 4.38151 79.7301 4.32442C79.7332 4.26732 79.7363 4.20422 79.7363 4.13812C79.7363 3.83162 79.6724 3.59425 79.5505 3.42598C79.4256 3.25771 79.2459 3.17658 79.0114 3.17658L79.0113 3.17657ZM83.3823 3.32982C83.3641 3.3178 83.3245 3.30278 83.2605 3.28475C83.1996 3.26672 83.1173 3.25771 83.0107 3.25771C82.7762 3.25771 82.5934 3.32081 82.4594 3.44401C82.3254 3.57021 82.231 3.70542 82.1761 3.85266V7.07682H81.4238V2.68082H82.1122V3.27577H82.1304C82.1609 3.19163 82.2004 3.1075 82.2492 3.02337C82.301 2.94224 82.3619 2.86712 82.435 2.80402C82.5112 2.74092 82.5995 2.68983 82.7 2.65378C82.8036 2.61772 82.9254 2.59969 83.0655 2.59969C83.1721 2.59969 83.2574 2.60871 83.3214 2.62674C83.3853 2.64477 83.4371 2.65979 83.4737 2.67181L83.3823 3.32982ZM84.8748 7.07689H84.1255V2.68089H84.8748V7.07689ZM84.5063 1.62012C84.3509 1.62012 84.226 1.57204 84.1346 1.47288C84.0402 1.37672 83.9945 1.24751 83.9945 1.08826C83.9945 0.935015 84.0402 0.811815 84.1346 0.712662C84.226 0.616508 84.3509 0.565423 84.5063 0.565423C84.6525 0.565423 84.7743 0.616508 84.8657 0.712662C84.9601 0.811823 85.0058 0.935015 85.0058 1.08826C85.0058 1.24751 84.9601 1.37672 84.8657 1.47288C84.7743 1.57204 84.6525 1.62012 84.5063 1.62012ZM89.1452 7.07689H88.4567V6.58109H88.4385C88.4202 6.61715 88.3806 6.67124 88.3197 6.74035C88.2558 6.80946 88.1796 6.87857 88.0821 6.94167C87.9877 7.00477 87.8689 7.06186 87.7349 7.11295C87.5978 7.16102 87.4455 7.18506 87.278 7.18506C87.083 7.18506 86.9033 7.15502 86.745 7.09792C86.5896 7.04083 86.4525 6.94769 86.3429 6.81848C86.2302 6.69228 86.1449 6.52401 86.087 6.31968C86.0292 6.11536 85.9987 5.86295 85.9987 5.56547V2.68086H86.751V5.51139C86.751 5.87498 86.8119 6.13639 86.9308 6.29262C87.0526 6.44887 87.2384 6.527 87.4943 6.527C87.7105 6.527 87.8933 6.47292 88.0395 6.36474C88.1887 6.25957 88.3075 6.1544 88.3928 6.04923V2.68085H89.1452L89.1452 7.07689ZM92.6328 7.07685V4.24631C92.6328 3.88573 92.581 3.62732 92.4744 3.46808C92.3708 3.30882 92.2003 3.2307 91.9657 3.2307C91.8408 3.2307 91.7312 3.24572 91.6368 3.27577C91.5393 3.30582 91.454 3.34488 91.3809 3.38995C91.3078 3.43502 91.2408 3.48611 91.186 3.54019C91.1312 3.59729 91.0824 3.64536 91.0459 3.68743V7.07682H90.2966V2.68082H90.9819V3.17661H91.0001C91.0306 3.12552 91.0793 3.06543 91.1403 2.99632C91.2012 2.92721 91.2773 2.8611 91.3717 2.79499C91.4631 2.73189 91.5728 2.67781 91.6977 2.63574C91.8195 2.59367 91.9596 2.57264 92.115 2.57264C92.6206 2.57264 92.98 2.76795 93.1902 3.15557C93.2328 3.09547 93.2937 3.02937 93.3668 2.96025C93.4399 2.89115 93.5283 2.82504 93.6258 2.76795C93.7263 2.71085 93.8359 2.66278 93.9608 2.62672C94.0857 2.59067 94.2197 2.57264 94.3689 2.57264C95.2705 2.57264 95.7244 3.08947 95.7244 4.1291V7.07679H94.9721V4.24625C94.9721 3.88568 94.9081 3.62726 94.7771 3.46802C94.6462 3.30877 94.4543 3.23065 94.2014 3.23065C93.9913 3.23065 93.8177 3.28173 93.6775 3.38089C93.5374 3.48305 93.4278 3.5792 93.3486 3.66935C93.3607 3.73546 93.3699 3.80757 93.376 3.88569C93.3823 3.96082 93.3851 4.04194 93.3851 4.12909V7.07678L92.6328 7.07685ZM34.1841 12.5155H33.2733V16.3075H32.524V12.5155H31.9849V12.0227L32.524 11.9205V11.0431C32.524 10.8058 32.5575 10.6014 32.6245 10.4302C32.6946 10.2589 32.7829 10.1177 32.8956 10.0065C33.0053 9.89831 33.1362 9.81718 33.2824 9.7691C33.4317 9.72102 33.5901 9.69699 33.7576 9.69699C33.919 9.69699 34.0531 9.71802 34.1658 9.76009C34.2785 9.80516 34.3516 9.83821 34.3881 9.86225L34.2297 10.4752C34.1932 10.4512 34.1414 10.4241 34.0714 10.3971C34.0043 10.3701 33.9221 10.355 33.8216 10.355C33.6419 10.355 33.5079 10.4121 33.4134 10.5203C33.322 10.6315 33.2733 10.8328 33.2733 11.1243V11.9115H34.2785L34.1841 12.5155ZM38.0433 16.3075H37.3579V15.8117H37.3396C37.3214 15.8478 37.2787 15.9019 37.2178 15.971C37.1569 16.0401 37.0777 16.1092 36.9833 16.1723C36.8858 16.2354 36.77 16.2925 36.633 16.3436C36.499 16.3916 36.3467 16.4157 36.1791 16.4157C35.9811 16.4157 35.8045 16.3856 35.6461 16.3285C35.4877 16.2715 35.3537 16.1783 35.241 16.0491C35.1313 15.9229 35.046 15.7546 34.9882 15.5503C34.9272 15.346 34.8998 15.0936 34.8998 14.7961V11.9115H35.6491V14.742C35.6491 15.1056 35.7101 15.367 35.8319 15.5232C35.9507 15.6795 36.1395 15.7576 36.3923 15.7576C36.6086 15.7576 36.7914 15.7035 36.9406 15.5954C37.0868 15.4902 37.2056 15.385 37.2939 15.2799V11.9115H38.0432L38.0433 16.3075ZM36.1974 10.6495C36.1974 10.7877 36.1548 10.9019 36.0664 10.989C35.9811 11.0731 35.8745 11.1152 35.7527 11.1152C35.6278 11.1152 35.5242 11.0731 35.4359 10.989C35.3506 10.9019 35.308 10.7877 35.308 10.6495C35.308 10.5082 35.3506 10.3941 35.4359 10.3099C35.5242 10.2258 35.6278 10.1807 35.7527 10.1807C35.8745 10.1807 35.9811 10.2258 36.0664 10.3099C36.1548 10.3941 36.1974 10.5082 36.1974 10.6495ZM37.6259 10.6495C37.6259 10.7877 37.5833 10.9019 37.498 10.989C37.4097 11.0731 37.3061 11.1152 37.1812 11.1152C37.0563 11.1152 36.9528 11.0731 36.8644 10.989C36.7791 10.9019 36.7365 10.7877 36.7365 10.6495C36.7365 10.5082 36.7792 10.3941 36.8644 10.3099C36.9528 10.2258 37.0563 10.1807 37.1812 10.1807C37.3061 10.1807 37.4097 10.2258 37.498 10.3099C37.5833 10.3941 37.6259 10.5082 37.6259 10.6495ZM41.1531 12.5605C41.1348 12.5485 41.0952 12.5335 41.0313 12.5155C40.9703 12.4974 40.8881 12.4884 40.7815 12.4884C40.547 12.4884 40.3612 12.5515 40.2302 12.6747C40.0961 12.8009 40.0017 12.9361 39.9469 13.0834V16.3075H39.1946V11.9115H39.8799V12.5065H39.9012C39.9317 12.4223 39.9713 12.3382 40.02 12.2541C40.0687 12.173 40.1327 12.0978 40.2058 12.0347C40.282 11.9716 40.3672 11.9205 40.4708 11.8845C40.5744 11.8484 40.6932 11.8304 40.8363 11.8304C40.9429 11.8304 41.0282 11.8394 41.0922 11.8575C41.1592 11.8755 41.2079 11.8905 41.2445 11.9025L41.1531 12.5605ZM47.1658 11.602C47.1658 11.8214 47.1384 12.0137 47.0836 12.179C47.0257 12.3412 46.9496 12.4825 46.8551 12.6027C46.7577 12.7228 46.648 12.819 46.5201 12.8911C46.3952 12.9632 46.2612 13.0203 46.1271 13.0564V13.0744C46.2947 13.1044 46.45 13.1615 46.5962 13.2487C46.7394 13.3328 46.8673 13.441 46.977 13.5672C47.0836 13.6964 47.1719 13.8466 47.2359 14.0209C47.2998 14.1952 47.3333 14.3875 47.3333 14.5948C47.3333 14.8442 47.2907 15.0726 47.2024 15.2799C47.1171 15.4873 46.9831 15.6675 46.8003 15.8208C46.6175 15.974 46.3861 16.0912 46.1089 16.1783C45.8286 16.2625 45.4997 16.3076 45.1159 16.3076H43.8062V9.98848H45.0397C45.4174 9.98848 45.7403 10.0275 46.0114 10.1027C46.2794 10.1808 46.5018 10.289 46.6724 10.4302C46.846 10.5684 46.9709 10.7397 47.0501 10.938C47.1262 11.1363 47.1658 11.3557 47.1658 11.6021V11.602ZM46.3495 11.6291C46.3495 11.3346 46.2429 11.0942 46.0327 10.9049C45.8225 10.7156 45.4936 10.6225 45.0398 10.6225H44.6133V12.801H45.0306C45.4632 12.801 45.7921 12.6958 46.0145 12.4885C46.2368 12.2811 46.3495 11.9957 46.3495 11.6291L46.3495 11.6291ZM46.4683 14.5377C46.4683 14.1981 46.3556 13.9277 46.1302 13.7294C45.9048 13.5311 45.5819 13.4319 45.1616 13.4319H44.6133V15.6464H45.1159C45.5911 15.6464 45.9353 15.5533 46.1485 15.367C46.3617 15.1807 46.4683 14.9042 46.4683 14.5377H46.4683ZM49.0757 16.3075H48.3264V11.9115H49.0757V16.3075ZM48.7071 10.8508C48.5518 10.8508 48.4269 10.8027 48.3355 10.7035C48.2411 10.6074 48.1954 10.4782 48.1954 10.3189C48.1954 10.1657 48.2411 10.0425 48.3355 9.9433C48.4269 9.84715 48.5518 9.79606 48.7071 9.79606C48.8533 9.79606 48.9751 9.84715 49.0665 9.9433C49.1609 10.0425 49.2066 10.1657 49.2066 10.3189C49.2066 10.4782 49.1609 10.6074 49.0665 10.7035C48.9751 10.8027 48.8533 10.8508 48.7071 10.8508ZM50.9702 15.2798C50.9702 15.4631 50.9945 15.5923 51.0494 15.6645C51.1012 15.7396 51.1926 15.7756 51.3235 15.7756C51.3905 15.7756 51.4484 15.7696 51.4941 15.7576C51.5398 15.7456 51.5763 15.7336 51.6007 15.7185L51.6647 16.2684C51.6281 16.2864 51.5611 16.3105 51.4606 16.3435C51.3631 16.3736 51.2291 16.3886 51.0616 16.3886C50.8087 16.3886 50.6047 16.3105 50.4493 16.1602C50.297 16.007 50.2178 15.7366 50.2178 15.3459V9.83508L50.9702 9.75094L50.9702 15.2798ZM52.1398 14.174C52.1398 13.7263 52.1977 13.3537 52.3165 13.0563C52.4322 12.7558 52.5845 12.5154 52.7703 12.3321C52.9561 12.1488 53.1663 12.0196 53.4008 11.9445C53.6354 11.8663 53.8699 11.8303 54.1075 11.8303C54.2476 11.8303 54.3725 11.8393 54.4761 11.8603C54.5827 11.8844 54.668 11.9084 54.738 11.9384V9.83506L55.4904 9.75093V16.3074H54.802V15.8386H54.7837C54.7655 15.8747 54.7319 15.9258 54.6832 15.9889C54.6314 16.055 54.5644 16.1181 54.4761 16.1812C54.3908 16.2473 54.2811 16.3014 54.1532 16.3464C54.0222 16.3915 53.8699 16.4156 53.6963 16.4156C53.4892 16.4156 53.2882 16.3735 53.0993 16.2923C52.9105 16.2112 52.746 16.079 52.6028 15.8987C52.4597 15.7184 52.347 15.4871 52.2647 15.2016C52.1825 14.9192 52.1398 14.5766 52.1398 14.174L52.1398 14.174ZM53.9034 15.7575C54.0192 15.7575 54.1258 15.7425 54.2172 15.7094C54.3116 15.6794 54.3908 15.6433 54.4578 15.5953C54.5278 15.5502 54.5857 15.5021 54.6314 15.454C54.6771 15.406 54.7136 15.3639 54.738 15.3248V12.6175C54.668 12.5725 54.5918 12.5364 54.5004 12.5063C54.4121 12.4763 54.2994 12.4613 54.1623 12.4613C53.9887 12.4613 53.8273 12.4883 53.675 12.5484C53.5227 12.6055 53.3917 12.7017 53.2821 12.8369C53.1693 12.9691 53.081 13.1434 53.0171 13.3597C52.9501 13.5731 52.9196 13.8345 52.9196 14.1439C52.9196 14.4504 52.9439 14.7058 52.9988 14.9102C53.0506 15.1145 53.1237 15.2798 53.215 15.403C53.3095 15.5292 53.413 15.6193 53.5318 15.6734C53.6476 15.7305 53.7725 15.7575 53.9034 15.7575ZM59.7577 16.3074H59.0693V15.8116H59.0511C59.0328 15.8477 58.9932 15.9018 58.9323 15.9709C58.8714 16.04 58.7892 16.1091 58.6947 16.1722C58.6003 16.2353 58.4846 16.2924 58.3475 16.3435C58.2104 16.3915 58.0581 16.4156 57.8936 16.4156C57.6926 16.4156 57.5159 16.3855 57.3576 16.3284C57.2022 16.2713 57.0651 16.1782 56.9555 16.049C56.8428 15.9228 56.7575 15.7545 56.6996 15.5502C56.6418 15.3459 56.6113 15.0935 56.6113 14.796V11.9114H57.3636V14.7419C57.3636 15.1055 57.4245 15.3669 57.5433 15.5231C57.6652 15.6794 57.851 15.7575 58.1068 15.7575C58.3231 15.7575 58.5058 15.7034 58.652 15.5953C58.8013 15.4901 58.9201 15.3849 59.0054 15.2797V11.9114H59.7577V16.3074ZM63.3398 16.3074V13.4768C63.3398 13.1042 63.2759 12.8368 63.1479 12.6745C63.023 12.5153 62.8281 12.4341 62.5692 12.4341C62.3468 12.4341 62.161 12.4882 62.0118 12.5994C61.8625 12.7076 61.7468 12.8157 61.6615 12.9179V16.3073H60.9091V11.9113H61.5945V12.4071H61.6127C61.631 12.371 61.6706 12.3169 61.7346 12.2448C61.7955 12.1757 61.8747 12.1096 61.9752 12.0435C62.0727 11.9804 62.1914 11.9233 62.3285 11.8752C62.4625 11.8271 62.6179 11.8031 62.7915 11.8031C62.9895 11.8031 63.1692 11.8302 63.3306 11.8902C63.4921 11.9473 63.6261 12.0405 63.7388 12.1667C63.8484 12.2959 63.9368 12.4642 63.9977 12.6655C64.0586 12.8698 64.0891 13.1222 64.0891 13.4227V16.3073L63.3398 16.3074ZM68.4052 12.4883H67.8478C67.991 12.7196 68.0641 12.984 68.0641 13.2755C68.0641 13.5069 68.0245 13.7172 67.9453 13.9035C67.8691 14.0898 67.7595 14.246 67.6224 14.3752C67.4823 14.5014 67.3178 14.6006 67.129 14.6667C66.9401 14.7358 66.7391 14.7689 66.5228 14.7689H66.401C66.3644 14.7689 66.3248 14.7629 66.2822 14.7568C66.206 14.7899 66.1299 14.838 66.0476 14.9041C65.9684 14.9732 65.9289 15.0603 65.9289 15.1715C65.9289 15.2617 65.9624 15.3368 66.0355 15.3939C66.1055 15.454 66.2213 15.481 66.3827 15.481H66.9492C67.1594 15.481 67.3544 15.502 67.5341 15.5471C67.7138 15.5892 67.8691 15.6583 68.0031 15.7514C68.1341 15.8476 68.2377 15.9678 68.3138 16.115C68.3869 16.2593 68.4235 16.4365 68.4235 16.6439C68.4235 16.8813 68.3717 17.0976 68.2712 17.2929C68.1676 17.4882 68.0245 17.6565 67.8387 17.7977C67.6529 17.9389 67.4275 18.0471 67.1625 18.1283C66.8975 18.2064 66.599 18.2454 66.27 18.2454C65.7949 18.2454 65.4324 18.1433 65.1857 17.9389C64.939 17.7346 64.8141 17.4401 64.8141 17.0556C64.8141 16.8903 64.8446 16.7491 64.9024 16.6319C64.9603 16.5117 65.0303 16.4095 65.1126 16.3194C65.1918 16.2292 65.274 16.1601 65.3563 16.109C65.4416 16.058 65.5086 16.0159 65.5573 15.9858V15.9678C65.3654 15.8266 65.271 15.6223 65.271 15.3548C65.271 15.2376 65.2923 15.1355 65.338 15.0513C65.3867 14.9672 65.4385 14.8951 65.4963 14.841C65.5542 14.7869 65.6151 14.7418 65.673 14.7088C65.7309 14.6757 65.7766 14.6517 65.807 14.6397V14.6216C65.5786 14.5165 65.3928 14.3542 65.2557 14.1319C65.1156 13.9095 65.0456 13.6241 65.0456 13.2755C65.0456 13.0321 65.0882 12.8157 65.1674 12.6294C65.2466 12.4431 65.3562 12.2899 65.4903 12.1667C65.6273 12.0465 65.7888 11.9534 65.9685 11.8933C66.1512 11.8332 66.3492 11.8031 66.5594 11.8031C66.7696 11.8031 66.9675 11.8392 67.1533 11.9113H68.5088L68.4052 12.4883ZM66.337 16.1691C66.206 16.1691 66.0933 16.1601 65.9928 16.1391C65.938 16.1722 65.8832 16.2082 65.8314 16.2503C65.7766 16.2923 65.7309 16.3464 65.6852 16.4065C65.6425 16.4666 65.609 16.5387 65.5786 16.6199C65.5511 16.704 65.539 16.8002 65.539 16.9083C65.539 17.3801 65.8009 17.6145 66.3279 17.6145C66.7787 17.6145 67.1137 17.5273 67.33 17.3531C67.5463 17.1788 67.6529 16.9804 67.6529 16.7551C67.6529 16.5418 67.5859 16.3885 67.4488 16.3014C67.3148 16.2142 67.132 16.1692 66.9036 16.1692L66.337 16.1691ZM67.33 13.2755C67.33 12.957 67.2538 12.7317 67.1016 12.5995C66.9493 12.4642 66.7726 12.3981 66.5685 12.3981C66.3522 12.3981 66.1664 12.4642 66.0111 12.5995C65.8558 12.7317 65.7796 12.957 65.7796 13.2755C65.7796 13.5941 65.8558 13.8194 66.0111 13.9516C66.1664 14.0868 66.3462 14.1529 66.5502 14.1529C66.7665 14.1529 66.9493 14.0868 67.1016 13.9516C67.2539 13.8194 67.33 13.5941 67.33 13.2755ZM35.4268 25.5379H34.7415V25.0421H34.7232C34.7049 25.0781 34.6623 25.1322 34.6014 25.2013C34.5404 25.2704 34.4612 25.3395 34.3638 25.4026C34.2694 25.4657 34.1536 25.5228 34.0165 25.5739C33.8825 25.622 33.7302 25.646 33.5627 25.646C33.3647 25.646 33.185 25.616 33.0297 25.5589C32.8713 25.5018 32.7372 25.4087 32.6246 25.2794C32.5149 25.1532 32.4296 24.985 32.3687 24.7806C32.3108 24.5763 32.2804 24.3239 32.2804 24.0264V21.1418H33.0327V23.9724C33.0327 24.3359 33.0936 24.5974 33.2155 24.7536C33.3343 24.9098 33.5231 24.988 33.7759 24.988C33.9922 24.988 34.1749 24.9339 34.3242 24.8257C34.4734 24.7205 34.5892 24.6154 34.6745 24.5102V21.1418H35.4268L35.4268 25.5379ZM39.0089 25.5378V22.7073C39.0089 22.3347 38.9449 22.0673 38.82 21.905C38.6921 21.7457 38.5002 21.6646 38.2383 21.6646C38.0159 21.6646 37.8301 21.7187 37.6839 21.8298C37.5346 21.938 37.4159 22.0462 37.3306 22.1484V25.5377H36.5782V21.1417H37.2636V21.6375H37.2818C37.3032 21.6015 37.3428 21.5474 37.4037 21.4753C37.4646 21.4062 37.5468 21.3401 37.6443 21.2739C37.7448 21.2108 37.8606 21.1538 37.9976 21.1057C38.1347 21.0576 38.29 21.0336 38.4637 21.0336C38.6586 21.0336 38.8383 21.0606 38.9997 21.1207C39.1612 21.1778 39.2983 21.2709 39.4079 21.3971C39.5206 21.5264 39.6059 21.6946 39.6699 21.8959C39.7308 22.1003 39.7612 22.3527 39.7612 22.6532V25.5378L39.0089 25.5378ZM40.6811 23.4044C40.6811 22.9567 40.739 22.5841 40.8547 22.2866C40.9735 21.9861 41.1258 21.7458 41.3116 21.5625C41.4974 21.3792 41.7076 21.25 41.9422 21.1748C42.1767 21.0967 42.4112 21.0607 42.6458 21.0607C42.7889 21.0607 42.9138 21.0697 43.0174 21.0907C43.124 21.1147 43.2093 21.1388 43.2793 21.1688V19.0654L44.0286 18.9813V25.5378H43.3433V25.069H43.325C43.3067 25.1051 43.2732 25.1561 43.2214 25.2192C43.1727 25.2854 43.1057 25.3485 43.0174 25.4116C42.9321 25.4777 42.8224 25.5317 42.6945 25.5768C42.5635 25.6219 42.4112 25.6459 42.2376 25.6459C42.0274 25.6459 41.8294 25.6039 41.6406 25.5227C41.4518 25.4416 41.2842 25.3094 41.1441 25.1291C41.001 24.9488 40.8883 24.7174 40.806 24.432C40.7207 24.1495 40.6811 23.807 40.6811 23.4044V23.4044ZM42.4417 24.9879C42.5605 24.9879 42.664 24.9729 42.7585 24.9398C42.8498 24.9098 42.9321 24.8737 42.9991 24.8256C43.0661 24.7806 43.124 24.7325 43.1697 24.6844C43.2184 24.6363 43.2519 24.5943 43.2793 24.5552V21.8479C43.2092 21.8028 43.13 21.7668 43.0417 21.7367C42.9503 21.7067 42.8376 21.6917 42.7036 21.6917C42.53 21.6917 42.3655 21.7187 42.2163 21.7788C42.064 21.8359 41.933 21.932 41.8203 22.0673C41.7107 22.1995 41.6223 22.3737 41.5553 22.5901C41.4913 22.8004 41.4578 23.0649 41.4578 23.3743C41.4578 23.6808 41.4853 23.9362 41.537 24.1405C41.5919 24.3449 41.6619 24.5101 41.7563 24.6333C41.8477 24.7595 41.9543 24.8497 42.0731 24.9038C42.1889 24.9609 42.3137 24.9879 42.4417 24.9879ZM47.3061 25.5378V19.2187H50.4494L50.3946 19.8527H48.1132V22.1844H50.2179V22.8184H48.1132V25.5378L47.3061 25.5378ZM51.016 23.3383C51.016 22.9356 51.0648 22.5901 51.1592 22.2956C51.2566 22.0011 51.3846 21.7637 51.5491 21.5774C51.7135 21.3911 51.9024 21.2529 52.1156 21.1658C52.3288 21.0756 52.5573 21.0336 52.7979 21.0336C53.0446 21.0336 53.2731 21.0756 53.4863 21.1658C53.6934 21.2529 53.8762 21.3911 54.0315 21.5774C54.1868 21.7637 54.3087 22.0011 54.4001 22.2956C54.4884 22.59 54.5341 22.9356 54.5341 23.3383C54.5341 23.7469 54.4884 24.0985 54.394 24.393C54.3026 24.6844 54.1716 24.9248 54.0102 25.1111C53.8457 25.2974 53.6538 25.4326 53.4375 25.5168C53.2213 25.6039 52.9928 25.646 52.7522 25.646C52.5055 25.646 52.277 25.6039 52.0638 25.5168C51.8536 25.4326 51.6709 25.2974 51.5186 25.1111C51.3633 24.9248 51.2414 24.6874 51.15 24.396C51.0617 24.1075 51.016 23.7529 51.016 23.3383ZM53.7543 23.3383C53.7543 22.7523 53.669 22.3286 53.4954 22.0612C53.3218 21.7968 53.0781 21.6646 52.7705 21.6646C52.4598 21.6646 52.2222 21.7968 52.0516 22.0612C51.8811 22.3286 51.7958 22.7523 51.7958 23.3383C51.7958 23.9242 51.8841 24.3449 52.0547 24.6033C52.2283 24.8587 52.472 24.9879 52.7796 24.9879C53.0903 24.9879 53.3279 24.8587 53.4984 24.6033C53.669 24.3449 53.7543 23.9242 53.7543 23.3383ZM57.4369 21.7908C57.4186 21.7788 57.379 21.7638 57.3181 21.7457C57.2542 21.7277 57.1719 21.7187 57.0653 21.7187C56.8307 21.7187 56.648 21.7818 56.514 21.905C56.3799 22.0312 56.2855 22.1664 56.2307 22.3136V25.5378H55.4783V21.1418H56.1667V21.7368H56.185C56.2155 21.6526 56.255 21.5685 56.3068 21.4844C56.3555 21.4032 56.4165 21.3281 56.4896 21.265C56.5658 21.2019 56.654 21.1508 56.7546 21.1148C56.8581 21.0787 56.98 21.0607 57.1231 21.0607C57.2267 21.0607 57.312 21.0697 57.379 21.0877C57.4429 21.1058 57.4917 21.1208 57.5313 21.1328L57.4369 21.7908ZM60.0625 22.0313C60.0137 21.9742 59.9254 21.899 59.7944 21.8059C59.6634 21.7097 59.4959 21.6647 59.2827 21.6647C59.0847 21.6647 58.9355 21.7097 58.8289 21.7999C58.7253 21.893 58.6735 22.0012 58.6735 22.1304C58.6735 22.2957 58.7192 22.4309 58.8167 22.5391C58.9111 22.6442 59.0573 22.7584 59.2583 22.8816L59.5355 23.0469C59.8371 23.2242 60.0777 23.4135 60.2483 23.6178C60.4219 23.8221 60.5102 24.0865 60.5102 24.411C60.5102 24.7566 60.3853 25.051 60.1417 25.2884C59.898 25.5258 59.5477 25.646 59.0877 25.646C58.9111 25.646 58.7527 25.6279 58.6156 25.5919C58.4816 25.5528 58.3597 25.5108 58.2592 25.4627C58.1557 25.4146 58.0704 25.3605 58.0034 25.3034C57.9364 25.2433 57.8785 25.1923 57.8358 25.1412L58.1983 24.5552C58.2349 24.5943 58.2806 24.6364 58.3323 24.6844C58.3872 24.7325 58.4481 24.7806 58.5242 24.8257C58.5973 24.8737 58.6826 24.9098 58.774 24.9398C58.8684 24.9729 58.975 24.9879 59.0999 24.9879C59.3223 24.9879 59.4928 24.9368 59.6086 24.8407C59.7274 24.7415 59.7852 24.6243 59.7852 24.4831C59.7852 24.3779 59.77 24.2908 59.7426 24.2127C59.7151 24.1376 59.6726 24.0685 59.6177 24.0084C59.5629 23.9453 59.4959 23.8882 59.4136 23.8341C59.3344 23.78 59.24 23.7169 59.1365 23.6508L58.8562 23.4765C58.579 23.2992 58.3597 23.1129 58.2044 22.9176C58.046 22.7223 57.9668 22.4729 57.9668 22.1664C57.9668 22.0012 58.0003 21.8509 58.0643 21.7127C58.1282 21.5775 58.2196 21.4573 58.3384 21.3581C58.4542 21.256 58.5943 21.1778 58.7496 21.1208C58.908 21.0607 59.0755 21.0336 59.2583 21.0336C59.4289 21.0336 59.5781 21.0486 59.703 21.0817C59.8248 21.1178 59.9314 21.1598 60.0228 21.2109C60.1112 21.262 60.1873 21.3161 60.2452 21.3671C60.303 21.4182 60.3518 21.4633 60.3883 21.4994L60.0625 22.0313ZM63.8698 21.9921C63.8485 21.9741 63.8211 21.9471 63.7815 21.911C63.7388 21.875 63.6901 21.8389 63.6261 21.7998C63.5652 21.7638 63.4921 21.7337 63.4038 21.7037C63.3185 21.6766 63.218 21.6646 63.1083 21.6646C62.9469 21.6646 62.7976 21.6947 62.6575 21.7518C62.5174 21.8089 62.3986 21.902 62.2951 22.0312C62.1945 22.1574 62.1123 22.3257 62.0544 22.53C61.9966 22.7343 61.9661 22.9807 61.9661 23.2752C61.9661 23.5997 61.9936 23.8702 62.0453 24.0895C62.0971 24.3089 62.1702 24.4861 62.2616 24.6153C62.356 24.7476 62.4687 24.8407 62.6027 24.9008C62.7337 24.9579 62.8799 24.9879 63.0413 24.9879C63.2698 24.9879 63.4464 24.9459 63.5652 24.8677C63.6871 24.7896 63.7724 24.7235 63.8211 24.6754L64.1287 25.1893C64.0982 25.2253 64.0525 25.2674 63.9917 25.3215C63.9338 25.3726 63.8576 25.4236 63.7663 25.4717C63.6749 25.5198 63.5591 25.5619 63.4282 25.5949C63.2941 25.628 63.1418 25.646 62.9682 25.646C62.7215 25.646 62.49 25.6069 62.2707 25.5258C62.0544 25.4477 61.8656 25.3155 61.7072 25.1322C61.5458 24.9489 61.4178 24.7115 61.3265 24.42C61.232 24.1256 61.1863 23.762 61.1863 23.3293C61.1863 22.9086 61.2412 22.551 61.3539 22.2596C61.4666 21.9651 61.6097 21.7307 61.7894 21.5504C61.9692 21.3702 62.1671 21.2379 62.3895 21.1568C62.6088 21.0727 62.8281 21.0336 63.0505 21.0336C63.218 21.0336 63.3642 21.0486 63.4921 21.0787C63.6201 21.1087 63.7267 21.1478 63.818 21.1929C63.9064 21.2379 63.9825 21.286 64.0404 21.3401C64.0983 21.3912 64.147 21.4363 64.1836 21.4723L63.8698 21.9921ZM67.4031 25.5379V22.7073C67.4031 22.3347 67.3392 22.0673 67.2143 21.905C67.0863 21.7458 66.8944 21.6646 66.6325 21.6646C66.4101 21.6646 66.2243 21.7187 66.0751 21.8299C65.9289 21.9381 65.8101 22.0462 65.7248 22.1484V25.5378H64.9724V19.0654L65.7248 18.9813V21.5894H65.743C65.7674 21.5534 65.807 21.5053 65.8588 21.4452C65.9106 21.3821 65.9837 21.322 66.0751 21.2619C66.1695 21.1988 66.2822 21.1477 66.4162 21.0996C66.5472 21.0546 66.7056 21.0335 66.8822 21.0335C67.2721 21.0335 67.5828 21.1567 67.8112 21.4091C68.0397 21.6585 68.1554 22.0732 68.1554 22.6531V25.5377L67.4031 25.5379ZM72.3954 25.5377H71.71V25.0419H71.6888C71.6736 25.078 71.6309 25.1321 71.57 25.2012C71.5091 25.2703 71.4299 25.3394 71.3324 25.4025C71.238 25.4656 71.1222 25.5227 70.9851 25.5738C70.8481 25.6219 70.6988 25.6459 70.5313 25.6459C70.3333 25.6459 70.1536 25.6159 69.9983 25.5588C69.8399 25.5017 69.7059 25.4085 69.5932 25.2793C69.4805 25.1531 69.3982 24.9849 69.3373 24.7805C69.2794 24.5762 69.249 24.3238 69.249 24.0263V21.1417H70.0013V23.9722C70.0013 24.3358 70.0622 24.5972 70.1841 24.7535C70.3029 24.9097 70.4887 24.9879 70.7445 24.9879C70.9608 24.9879 71.1435 24.9338 71.2928 24.8256C71.439 24.7204 71.5578 24.6153 71.6431 24.5101V21.1417H72.3954L72.3954 25.5377ZM75.9775 25.5377V22.7072C75.9775 22.3346 75.9136 22.0671 75.7856 21.9049C75.6607 21.7456 75.4688 21.6645 75.2069 21.6645C74.9845 21.6645 74.7987 21.7185 74.6495 21.8297C74.5033 21.9379 74.3845 22.0461 74.2992 22.1482V25.5376H73.5468V21.1416H74.2322V21.6374H74.2504C74.2717 21.6014 74.3113 21.5473 74.3722 21.4752C74.4332 21.406 74.5154 21.3399 74.6129 21.2738C74.7134 21.2107 74.8291 21.1536 74.9662 21.1056C75.1033 21.0575 75.2556 21.0334 75.4292 21.0334C75.6272 21.0334 75.8069 21.0605 75.9683 21.1206C76.1298 21.1777 76.2638 21.2708 76.3765 21.397C76.4892 21.5262 76.5745 21.6945 76.6354 21.8958C76.6963 22.1002 76.7298 22.3526 76.7298 22.653V25.5377L75.9775 25.5377ZM81.0428 21.7186H80.4885C80.6286 21.95 80.7017 22.2144 80.7017 22.5058C80.7017 22.7372 80.6621 22.9475 80.5859 23.1338C80.5067 23.3201 80.4001 23.4764 80.26 23.6056C80.1199 23.7318 79.9554 23.8309 79.7696 23.897C79.5808 23.9662 79.3767 23.9992 79.1604 23.9992H79.0386C79.002 23.9992 78.9624 23.9932 78.9198 23.9872C78.8436 24.0202 78.7675 24.0683 78.6883 24.1344C78.6061 24.2035 78.5665 24.2907 78.5665 24.4019C78.5665 24.492 78.603 24.5671 78.6731 24.6242C78.7431 24.6843 78.8589 24.7113 79.0203 24.7113H79.5869C79.7971 24.7113 79.992 24.7324 80.1717 24.7775C80.3514 24.8195 80.5068 24.8886 80.6408 24.9818C80.7748 25.0779 80.8784 25.1981 80.9515 25.3454C81.0246 25.4896 81.0611 25.6669 81.0611 25.8742C81.0611 26.1116 81.0124 26.3279 80.9089 26.5232C80.8083 26.7186 80.6621 26.8868 80.4794 27.0281C80.2936 27.1693 80.0651 27.2775 79.8001 27.3586C79.5351 27.4367 79.2366 27.4758 78.9107 27.4758C78.4325 27.4758 78.0731 27.3736 77.8234 27.1693C77.5766 26.965 77.4518 26.6705 77.4518 26.2859C77.4518 26.1206 77.4822 25.9794 77.5401 25.8622C77.601 25.742 77.668 25.6399 77.7503 25.5497C77.8295 25.4596 77.9117 25.3905 77.997 25.3394C78.0792 25.2883 78.1462 25.2462 78.195 25.2162V25.1981C78.0031 25.0569 77.9086 24.8526 77.9086 24.5852C77.9086 24.468 77.9299 24.3658 77.9787 24.2817C78.0244 24.1975 78.0761 24.1254 78.134 24.0713C78.1919 24.0173 78.2528 23.9722 78.3107 23.9391C78.3685 23.9061 78.4142 23.882 78.4447 23.87V23.852C78.2163 23.7468 78.0335 23.5846 77.8934 23.3622C77.7533 23.1398 77.6863 22.8544 77.6863 22.5058C77.6863 22.2624 77.7259 22.0461 77.805 21.8598C77.8873 21.6735 77.9939 21.5202 78.131 21.397C78.268 21.2769 78.4264 21.1837 78.6092 21.1236C78.7919 21.0635 78.9869 21.0335 79.1971 21.0335C79.4072 21.0335 79.6052 21.0695 79.791 21.1416H81.1465L81.0428 21.7186ZM78.9747 25.3995C78.8437 25.3995 78.731 25.3905 78.6305 25.3694C78.5757 25.4025 78.5208 25.4385 78.4691 25.4806C78.4173 25.5227 78.3685 25.5768 78.3259 25.6369C78.2802 25.697 78.2467 25.7691 78.2193 25.8502C78.1888 25.9343 78.1766 26.0305 78.1766 26.1387C78.1766 26.6104 78.4386 26.8448 78.9655 26.8448C79.4163 26.8448 79.7514 26.7577 79.9677 26.5834C80.1839 26.4091 80.2936 26.2108 80.2936 25.9854C80.2936 25.7721 80.2236 25.6188 80.0895 25.5317C79.9524 25.4446 79.7697 25.3995 79.5412 25.3995L78.9747 25.3995ZM79.9677 22.5059C79.9677 22.1874 79.8915 21.962 79.7392 21.8298C79.5869 21.6946 79.4103 21.6285 79.2062 21.6285C78.9899 21.6285 78.8041 21.6946 78.6488 21.8298C78.4965 21.962 78.4173 22.1874 78.4173 22.5059C78.4173 22.8244 78.4965 23.0497 78.6488 23.182C78.8041 23.3172 78.9838 23.3833 79.1879 23.3833C79.4042 23.3833 79.5869 23.3172 79.7392 23.182C79.8915 23.0497 79.9677 22.8244 79.9677 22.5059Z" fill="black"/>
<path d="M25.497 31.6892H26.6667V47.0738H23.9375V31.6892" fill="#F5CF00"/>
<path d="M25.497 16.2292H26.6667V31.6892H23.9375V16.2292" fill="#E6000C"/>
<path d="M16.8348 6.29848C17.6328 7.54548 18.2572 7.52448 19.2015 7.52448C18.4217 6.93253 17.9039 6.17832 17.6572 5.79071L16.2012 3.48901C16.0581 2.77688 15.6864 2.11578 15.129 1.62002C15.3148 1.55091 15.4702 1.47578 15.5646 1.40668C14.6142 1.40668 13.67 0.928915 13.1491 0.928915C12.8171 0.928915 12.6009 1.12423 12.6009 1.38565C12.6222 1.67411 12.9268 1.97158 13.4842 1.97158C13.6121 1.97158 13.7736 1.95355 13.9502 1.92651C14.2548 2.34118 14.4985 2.71675 14.4985 3.25467C14.4985 4.26128 13.2771 5.04851 12.0435 5.04851C11.9734 5.04851 11.9064 5.04551 11.8364 5.0395C11.7267 4.7901 11.3551 4.36943 11.3551 3.89465C11.3551 3.09235 11.8851 2.43735 11.8851 1.64404C11.8851 1.15425 11.6384 0.84773 11.547 0.721576C11.6993 0.583353 11.8638 0.412085 11.9003 0.294892C11.815 0.330946 11.7084 0.336961 11.5561 0.336961C10.9652 0.336961 10.484 0.183716 10.0149 0.183716C9.74682 0.183716 9.67371 0.267854 9.67371 0.345977C9.67371 0.373023 9.6798 0.403069 9.6859 0.418092C9.58843 0.376023 9.49401 0.351985 9.38131 0.330954C9.24424 0.306916 9.09499 0.291892 8.9366 0.291892C8.36396 0.291892 8.15989 0.529269 8.15989 0.730592C8.15989 0.901869 8.29696 1.21437 8.4523 1.45175C8.67466 1.34358 8.9427 1.26845 9.06454 1.26845C9.36609 1.26845 9.63718 1.55391 9.78034 1.89045C9.57626 1.91448 9.53666 1.9235 9.32954 1.9235C8.77518 1.9235 8.39749 1.72518 8.31827 1.72518C8.31219 1.72518 8.29695 1.73118 8.29695 1.74322C8.29695 1.81834 8.45533 2.02266 8.76602 2.13384C9.17418 2.28108 9.78642 2.34418 9.88997 2.3592C9.88997 2.37723 9.78641 2.56954 9.67067 2.60559C9.6463 2.61159 9.62498 2.61461 9.59756 2.60859C9.17113 2.52445 9.04929 2.4884 8.51018 2.28708C8.49191 2.28108 8.48277 2.29008 8.48277 2.30811C8.48277 2.51845 9.03713 2.98719 9.53365 3.16449C9.1194 3.68733 8.6016 4.22218 8.35489 5.03949C8.28787 5.04549 8.22086 5.04851 8.15081 5.04851C6.91722 5.04851 5.6958 4.26128 5.6958 3.25466C5.6958 2.7168 5.93948 2.3412 6.24407 1.92651C6.42073 1.95355 6.58217 1.97158 6.7101 1.97158C7.26751 1.97158 7.57213 1.6741 7.59342 1.38564C7.59342 1.12422 7.37716 0.928908 7.0421 0.928908C6.52429 0.928908 5.58005 1.40667 4.62663 1.40667C4.72106 1.47578 4.87945 1.5509 5.06525 1.62001C4.50785 2.1158 4.13624 2.77685 3.99308 3.48901L2.53407 5.7907C2.29039 6.17832 1.77258 6.93255 0.989746 7.52447C1.93396 7.52447 2.56143 7.5455 3.35952 6.29847L4.10578 5.11754C4.1606 5.27079 4.23066 5.42103 4.30986 5.56827L2.82347 7.91504C2.57371 8.30266 2.06199 9.05388 1.27916 9.64581C2.22337 9.64581 2.8478 9.66684 3.64589 8.42288L4.92517 6.40065C5.02264 6.50281 5.12316 6.60198 5.22976 6.69512L3.42352 9.54666C3.17375 9.93728 2.66507 10.6855 1.8792 11.2774C2.82341 11.2774 3.44784 11.3015 4.24593 10.0545L6.00648 7.27504C6.12222 7.34716 6.24101 7.41627 6.36285 7.48238L4.21547 10.8748C3.9657 11.2655 3.45702 12.0107 2.67115 12.6056C3.61536 12.6056 4.23979 12.6266 5.03788 11.3827L7.25225 7.88807C7.38322 7.93915 7.5142 7.98422 7.65127 8.02929L5.15057 11.9776C4.9069 12.3622 4.383 13.1194 3.60625 13.7084C4.55047 13.7084 5.1749 13.7294 5.97299 12.4854L8.63821 8.27567C8.66563 8.28168 8.69304 8.28469 8.72046 8.2907C8.79356 8.51907 8.84229 8.7294 8.84229 8.94274C8.84229 10.2649 7.96202 11.4307 6.90809 12.3321C6.97511 12.3622 7.09085 12.3742 7.2005 12.3742C7.41981 12.3742 7.55993 12.3622 7.6574 12.3442C7.41372 12.891 6.88982 13.6002 6.62484 13.9668C6.2776 13.9067 5.77505 13.8586 5.44607 13.8586C5.10188 13.8586 5.06228 14.0569 5.06228 14.2342C5.06228 14.5437 5.20848 14.7871 5.37906 14.9253C5.44302 14.7661 5.57095 14.5557 6.20755 14.5557C6.21974 14.5557 6.24106 14.5587 6.27152 14.5587C6.08572 14.763 5.50394 15.2288 5.50394 15.6014C5.50394 15.8508 5.77808 16.2204 6.14055 16.2204C6.11923 16.1423 6.12227 16.0672 6.12227 16.0131C6.12227 15.7096 6.3964 15.355 6.62485 15.1086C6.61877 15.1807 6.62181 15.1747 6.62181 15.2588C6.62181 15.977 6.68882 16.3045 7.14876 16.3045C7.37416 16.3045 7.5295 16.1843 7.58433 16.1453C7.28278 15.8749 7.2706 15.6615 7.2706 15.2589V14.9103C7.27364 14.8202 7.2706 14.697 7.25537 14.6099C7.41985 14.5888 7.48686 14.5888 7.61479 14.5888C7.61479 14.5888 8.26967 14.5378 8.42808 14.8743C8.60475 14.712 8.86365 14.4867 8.86365 14.2343C8.86365 14.069 8.78446 13.8827 8.44635 13.8827C8.31843 13.8827 7.91636 13.9608 7.58128 13.9608C7.66962 13.7625 8.07169 13.1826 8.42195 12.7619C8.47373 12.9242 8.55597 13.1015 8.73873 13.2457C8.76309 12.9753 8.92453 12.1189 9.354 11.6171C9.40274 11.9566 9.46975 12.3022 9.46975 13.0354C9.46975 14.8142 9.03722 16.1273 8.11733 16.3798C8.23612 16.5841 8.48893 16.7704 8.75394 16.7704C9.08899 16.7704 9.27175 16.3948 9.4606 16.0402C9.55807 16.3016 9.82611 16.9417 10.0972 16.9417C10.3652 16.9417 10.6363 16.3017 10.7338 16.0402C10.9196 16.3948 11.1024 16.7704 11.4405 16.7704C11.7024 16.7704 11.9583 16.5841 12.0771 16.3798C11.1572 16.1274 10.7216 14.8142 10.7216 13.0354C10.7216 12.3022 10.7886 11.9567 10.8404 11.6171C11.2668 12.1189 11.4283 12.9752 11.4526 13.2457C11.6354 13.1015 11.7207 12.9242 11.7725 12.7619C12.1197 13.1826 12.5218 13.7625 12.6131 13.9608C12.275 13.9608 11.873 13.8827 11.7481 13.8827C11.41 13.8827 11.3308 14.069 11.3308 14.2343C11.3308 14.4867 11.5897 14.712 11.7663 14.8743C11.9247 14.5378 12.5796 14.5888 12.5796 14.5888C12.7045 14.5888 12.7715 14.5888 12.939 14.6099C12.9238 14.697 12.9208 14.8202 12.9208 14.9103C12.9238 15.0516 12.9238 15.1537 12.9238 15.2589C12.9238 15.6615 12.9086 15.8749 12.6101 16.1453C12.6649 16.1843 12.8202 16.3045 13.0456 16.3045C13.5056 16.3045 13.5726 15.977 13.5726 15.2588C13.5726 15.1747 13.5756 15.1807 13.5696 15.1086C13.798 15.355 14.0721 15.7096 14.0721 16.0131C14.0721 16.0672 14.0721 16.1423 14.0508 16.2204C14.4163 16.2204 14.6905 15.8508 14.6905 15.6014C14.6905 15.2288 14.1087 14.7631 13.9198 14.5587C13.9503 14.5587 13.9747 14.5557 13.9838 14.5557C14.6234 14.5557 14.7514 14.7661 14.8153 14.9253C14.9859 14.7871 15.1321 14.5437 15.1321 14.2342C15.1321 14.0569 15.0925 13.8586 14.7483 13.8586C14.4194 13.8586 13.9168 13.9067 13.5696 13.9668C13.3046 13.6002 12.7807 12.8911 12.534 12.3442C12.6345 12.3622 12.7746 12.3742 12.9909 12.3742C13.1005 12.3742 13.2193 12.3622 13.2863 12.3321C12.2293 11.4307 11.3491 10.2648 11.3491 8.94274C11.3491 8.72941 11.4009 8.51907 11.474 8.2907C11.5014 8.2847 11.5288 8.28168 11.5562 8.27567L14.2214 12.4854C15.0164 13.7294 15.6439 13.7084 16.585 13.7084C15.8114 13.1194 15.2874 12.3622 15.0438 11.9776L12.5431 8.02929C12.6771 7.98422 12.8111 7.93915 12.9421 7.88807L15.1534 11.3827C15.9545 12.6267 16.5789 12.6056 17.5232 12.6056C16.7373 12.0107 16.2256 11.2655 15.9789 10.8748L13.8315 7.48238C13.9503 7.41627 14.0721 7.34716 14.1879 7.27504L15.9484 10.0545C16.7464 11.3015 17.3708 11.2774 18.3151 11.2774C17.5293 10.6855 17.0206 9.93728 16.7708 9.54666L14.9646 6.69512C15.0712 6.60198 15.1717 6.50281 15.2661 6.40065L16.5484 8.42288C17.3465 9.66688 17.9709 9.64581 18.9152 9.64581C18.1293 9.05386 17.6176 8.30265 17.3709 7.91504L15.8845 5.56827C15.9637 5.42103 16.0307 5.27079 16.0886 5.11754L16.8348 6.29848ZM4.90053 3.59708C4.90053 2.7197 5.54627 2.02555 5.77472 1.83024C5.82955 1.84226 5.88437 1.85728 5.93616 1.8693C5.69553 2.15776 5.26909 2.64753 5.26909 3.29361C5.26909 4.57668 6.65801 5.69145 8.23282 5.69145C8.22063 5.79962 8.21759 5.91681 8.21759 6.034C8.21759 6.2233 8.22673 6.40058 8.245 6.56585C6.46613 6.55684 4.90053 5.13255 4.90053 3.59708H4.90053ZM7.30983 14.114L7.30069 14.1441H7.33115C7.83068 14.1441 8.07436 14.108 8.23583 14.087C8.32112 14.0749 8.38204 14.0659 8.446 14.0659C8.57393 14.0659 8.67445 14.078 8.67445 14.2342C8.67445 14.3394 8.54956 14.5076 8.42772 14.6038C8.24496 14.4325 7.98911 14.3995 7.61443 14.3995C7.44081 14.3995 7.20932 14.4295 7.08748 14.4475L7.06921 14.4505L7.04789 14.4535L7.05397 14.5106C7.0692 14.6128 7.08443 14.739 7.08443 14.9103V15.0665L7.08139 15.2588C7.08139 15.6765 7.13926 15.9169 7.28851 16.0971C7.24891 16.1122 7.18799 16.1242 7.14839 16.1242C6.8834 16.1242 6.80725 16.01 6.80725 15.2588C6.80725 15.1086 6.79811 14.9703 6.79507 14.8742L6.78593 14.736L6.75242 14.76C6.36254 15.0545 5.95745 15.5803 5.93609 15.9739C5.8173 15.8988 5.68936 15.7305 5.68936 15.6013C5.68936 15.388 6.01528 15.0665 6.39602 14.6909L6.6397 14.4505L6.56964 14.4325C6.4874 14.4114 6.33511 14.3724 6.20718 14.3724C5.78379 14.3724 5.51575 14.4535 5.35124 14.6278C5.29336 14.5436 5.24463 14.3483 5.24463 14.2341C5.24463 14.159 5.25985 14.1079 5.29031 14.0779C5.32686 14.0418 5.38473 14.0418 5.43347 14.0418H5.44566C5.91473 14.0418 6.47214 14.126 6.69148 14.159L6.70367 14.162L6.71281 14.153C6.74936 14.1019 7.64182 12.9301 7.87333 12.3081C7.92815 12.287 7.97385 12.272 8.06827 12.272C8.24493 12.272 8.29063 12.3892 8.3424 12.5695C7.785 13.2366 7.43772 13.7564 7.30984 14.114L7.30983 14.114ZM12.1255 12.272C12.2199 12.272 12.2626 12.2871 12.3174 12.3081C12.5489 12.9301 13.4413 14.1019 13.4809 14.153L13.487 14.162L13.5023 14.159C13.7185 14.126 14.279 14.0418 14.7481 14.0418H14.7572C14.809 14.0418 14.8669 14.0418 14.9034 14.0779C14.9339 14.1079 14.9491 14.159 14.9491 14.2341C14.9491 14.3483 14.9004 14.5436 14.8395 14.6278C14.675 14.4535 14.41 14.3724 13.9835 14.3724C13.8556 14.3724 13.7063 14.4114 13.6241 14.4325L13.5906 14.4385L13.551 14.4505L13.7977 14.6909C14.1754 15.0665 14.5044 15.388 14.5044 15.6013C14.5044 15.7305 14.3765 15.8988 14.2577 15.9739C14.2333 15.5803 13.8312 15.0545 13.4383 14.76L13.4048 14.736L13.3987 14.8742C13.3926 14.9704 13.3865 15.1086 13.3865 15.2588C13.3865 16.01 13.3073 16.1242 13.0454 16.1242C13.0058 16.1242 12.9418 16.1122 12.9052 16.0972C13.0515 15.9169 13.1124 15.6765 13.1124 15.2588L13.1093 15.0665L13.1063 14.9103C13.1063 14.739 13.1246 14.6128 13.1398 14.5107L13.1459 14.4536L13.1063 14.4476C12.9814 14.4295 12.7529 14.3995 12.5793 14.3995C12.2047 14.3995 11.9488 14.4325 11.766 14.6038C11.6442 14.5077 11.5193 14.3394 11.5193 14.2342C11.5193 14.078 11.6168 14.066 11.7478 14.066C11.8117 14.066 11.8726 14.075 11.9579 14.087C12.1194 14.108 12.36 14.1441 12.8626 14.1441H12.8931L12.8809 14.114C12.756 13.7565 12.4088 13.2366 11.8514 12.5696C11.9001 12.3893 11.9488 12.2721 12.1255 12.2721V12.272ZM10.0604 2.04055C10.0025 1.81218 9.88371 1.58082 9.73446 1.40354C9.59739 1.24428 9.36894 1.05498 9.06434 1.05498C8.92423 1.05498 8.68969 1.11808 8.54349 1.18118C8.48561 1.08202 8.379 0.838639 8.379 0.730462C8.379 0.619285 8.57089 0.5051 8.93641 0.5051C9.7405 0.5051 10.2187 0.865677 10.2187 1.46664C10.2187 1.67698 10.1365 1.87228 10.0603 2.04055H10.0604ZM10.4198 1.25932C10.3923 1.08805 10.3253 0.934799 10.2248 0.802592C10.2309 0.649346 10.2949 0.499108 10.5507 0.6223C10.4106 0.760523 10.5172 1.00391 10.5172 1.00391C10.5172 1.00391 10.7975 0.877708 10.7396 0.694416C11.1569 0.793577 10.8584 1.34345 10.4198 1.25932ZM11.9854 6.56578C12.0067 6.39451 12.0189 6.21723 12.0189 6.03393C12.0189 5.93477 12.0189 5.82059 12.0067 5.68838C13.5601 5.66735 14.9247 4.56461 14.9247 3.29353C14.9247 2.6475 14.4983 2.15768 14.2546 1.86922C14.3094 1.8572 14.3643 1.84218 14.4191 1.83016C14.6475 2.02548 15.2933 2.71955 15.2933 3.59701C15.2933 5.12047 13.749 6.5357 11.9854 6.56578" fill="black"/>
<path d="M26.6667 0.923096V16.3077H23.9375V0.923096" fill="black"/>
</svg>
