<?xml version="1.0" standalone="no"?>
<!DOCTYPE svg PUBLIC "-//W3C//DTD SVG 20010904//EN"
 "http://www.w3.org/TR/2001/REC-SVG-20010904/DTD/svg10.dtd">
<svg version="1.0" xmlns="http://www.w3.org/2000/svg"
 width="512.000000pt" height="512.000000pt" viewBox="0 0 512.000000 512.000000"
 preserveAspectRatio="xMidYMid meet">
<metadata>
Created by potrace 1.11, written by Peter Selinger 2001-2013
</metadata>
<g transform="translate(0.000000,512.000000) scale(0.100000,-0.100000)"
fill="#000000" stroke="none">
<path d="M2601 4575 c-114 -32 -140 -55 -423 -359 l-268 -290 -418 -303 c-229
-167 -438 -325 -464 -353 -81 -86 -87 -108 -198 -680 -89 -462 -101 -535 -98
-610 6 -148 15 -161 398 -575 408 -442 464 -500 515 -529 109 -64 268 -74 379
-23 32 15 130 84 220 157 121 96 174 132 209 141 40 11 104 6 569 -49 288 -35
542 -63 564 -62 101 1 234 65 298 144 34 42 459 724 494 793 41 80 44 126 40
643 l-3 495 -31 66 c-18 37 -49 85 -70 108 -20 23 -209 174 -420 336 l-383
295 -261 280 c-143 154 -275 291 -293 304 -96 73 -243 102 -356 71z m209 -215
c20 -10 145 -138 295 -300 l260 -281 400 -308 c323 -249 405 -317 425 -352
l25 -44 0 -490 0 -490 -29 -50 c-113 -192 -443 -716 -469 -743 -18 -18 -53
-39 -82 -48 -49 -16 -64 -14 -565 46 -573 69 -633 71 -730 28 -30 -14 -127
-83 -216 -155 -166 -134 -199 -153 -268 -153 -92 0 -110 17 -512 450 -220 237
-384 422 -395 445 -10 22 -19 59 -19 82 0 22 44 271 99 551 74 381 105 521
122 551 18 33 103 100 455 356 l432 315 253 272 c139 150 265 284 281 297 64
52 161 60 238 21z"/>
<path d="M2566 3789 c-93 -22 -153 -67 -325 -247 l-166 -173 -225 -141 c-239
-149 -316 -212 -357 -293 -14 -27 -80 -201 -145 -385 l-120 -335 4 -96 c6
-156 23 -182 313 -483 133 -138 259 -263 281 -278 103 -73 280 -89 396 -36 31
15 95 56 143 92 47 36 104 70 126 76 33 9 105 3 402 -31 399 -46 432 -46 539
4 95 44 135 91 303 353 86 135 167 267 179 293 20 44 21 59 21 401 l0 355 -34
70 c-58 118 -103 152 -384 299 l-248 128 -137 142 c-183 189 -208 212 -258
241 -83 49 -210 67 -308 44z m199 -216 c16 -9 113 -99 215 -202 l185 -186 244
-125 c263 -135 298 -161 320 -243 9 -29 11 -131 9 -333 l-3 -290 -149 -235
c-158 -248 -183 -281 -231 -306 -60 -32 -91 -31 -427 8 -380 44 -424 46 -505
21 -66 -21 -88 -34 -193 -114 -41 -31 -94 -62 -117 -68 -52 -16 -117 -7 -165
23 -47 29 -467 467 -492 514 -11 20 -21 59 -24 87 -3 45 9 88 113 376 64 179
127 341 140 361 18 28 83 74 261 185 131 82 258 169 283 194 26 25 108 109
185 188 115 118 146 145 185 157 52 16 119 11 166 -12z"/>
<path d="M2420 3020 c-112 -12 -284 -95 -355 -171 -68 -73 -125 -198 -132
-291 -11 -141 30 -244 141 -354 97 -96 146 -118 261 -119 79 0 97 4 148 28
l59 29 151 -21 c124 -17 164 -19 216 -11 65 11 142 45 198 87 44 33 151 165
168 207 32 76 11 169 -52 227 -15 15 -84 55 -152 89 -107 53 -137 74 -212 146
-98 94 -176 138 -275 154 -64 11 -67 11 -164 0z m185 -214 c19 -8 81 -57 138
-108 88 -79 121 -102 225 -152 67 -33 122 -62 122 -64 0 -3 -26 -34 -57 -70
-92 -105 -141 -117 -350 -86 -129 19 -194 14 -269 -20 -91 -42 -116 -36 -201
47 -88 85 -104 177 -49 284 34 68 79 106 171 147 69 31 91 35 158 36 46 0 92
-6 112 -14z"/>
</g>
</svg>
